<svg width="1436" height="280" viewBox="0 0 1436 280" fill="none" xmlns="http://www.w3.org/2000/svg">
<g opacity="0.64" clip-path="url(#clip0_184_3383)">
<mask id="mask0_184_3383" style="mask-type:alpha" maskUnits="userSpaceOnUse" x="-2" y="0" width="1440" height="1440">
<rect width="1440" height="1197" transform="translate(-2)" fill="url(#paint0_radial_184_3383)"/>
</mask>
<g mask="url(#mask0_184_3383)">
<g clip-path="url(#clip1_184_3383)">
<mask id="path-1-inside-1_184_3383" fill="white">
<path d="M-50 0H46V96H-50V0Z"/>
</mask>
<path d="M46 96V97H47V96H46ZM45 0V96H47V0H45ZM46 95H-50V97H46V95Z" fill="#D0D5DD" fill-opacity="0.03" mask="url(#path-1-inside-1_184_3383)"/>
<mask id="path-3-inside-2_184_3383" fill="white">
<path d="M46 0H142V96H46V0Z"/>
</mask>
<path d="M142 96V97H143V96H142ZM141 0V96H143V0H141ZM142 95H46V97H142V95Z" fill="#D0D5DD" fill-opacity="0.03" mask="url(#path-3-inside-2_184_3383)"/>
<mask id="path-5-inside-3_184_3383" fill="white">
<path d="M142 0H238V96H142V0Z"/>
</mask>
<path d="M238 96V97H239V96H238ZM237 0V96H239V0H237ZM238 95H142V97H238V95Z" fill="#D0D5DD" fill-opacity="0.03" mask="url(#path-5-inside-3_184_3383)"/>
<mask id="path-7-inside-4_184_3383" fill="white">
<path d="M238 0H334V96H238V0Z"/>
</mask>
<path d="M334 96V97H335V96H334ZM333 0V96H335V0H333ZM334 95H238V97H334V95Z" fill="#D0D5DD" fill-opacity="0.03" mask="url(#path-7-inside-4_184_3383)"/>
<mask id="path-9-inside-5_184_3383" fill="white">
<path d="M334 0H430V96H334V0Z"/>
</mask>
<path d="M430 96V97H431V96H430ZM429 0V96H431V0H429ZM430 95H334V97H430V95Z" fill="#D0D5DD" fill-opacity="0.03" mask="url(#path-9-inside-5_184_3383)"/>
<mask id="path-11-inside-6_184_3383" fill="white">
<path d="M430 0H526V96H430V0Z"/>
</mask>
<path d="M526 96V97H527V96H526ZM525 0V96H527V0H525ZM526 95H430V97H526V95Z" fill="#D0D5DD" fill-opacity="0.03" mask="url(#path-11-inside-6_184_3383)"/>
<mask id="path-13-inside-7_184_3383" fill="white">
<path d="M526 0H622V96H526V0Z"/>
</mask>
<path d="M622 96V97H623V96H622ZM621 0V96H623V0H621ZM622 95H526V97H622V95Z" fill="#D0D5DD" fill-opacity="0.03" mask="url(#path-13-inside-7_184_3383)"/>
<mask id="path-15-inside-8_184_3383" fill="white">
<path d="M622 0H718V96H622V0Z"/>
</mask>
<path d="M718 96V97H719V96H718ZM717 0V96H719V0H717ZM718 95H622V97H718V95Z" fill="#D0D5DD" fill-opacity="0.03" mask="url(#path-15-inside-8_184_3383)"/>
<mask id="path-17-inside-9_184_3383" fill="white">
<path d="M718 0H814V96H718V0Z"/>
</mask>
<path d="M814 96V97H815V96H814ZM813 0V96H815V0H813ZM814 95H718V97H814V95Z" fill="#D0D5DD" fill-opacity="0.03" mask="url(#path-17-inside-9_184_3383)"/>
<mask id="path-19-inside-10_184_3383" fill="white">
<path d="M814 0H910V96H814V0Z"/>
</mask>
<path d="M910 96V97H911V96H910ZM909 0V96H911V0H909ZM910 95H814V97H910V95Z" fill="#D0D5DD" fill-opacity="0.03" mask="url(#path-19-inside-10_184_3383)"/>
<mask id="path-21-inside-11_184_3383" fill="white">
<path d="M910 0H1006V96H910V0Z"/>
</mask>
<path d="M1006 96V97H1007V96H1006ZM1005 0V96H1007V0H1005ZM1006 95H910V97H1006V95Z" fill="#D0D5DD" fill-opacity="0.03" mask="url(#path-21-inside-11_184_3383)"/>
<mask id="path-23-inside-12_184_3383" fill="white">
<path d="M1006 0H1102V96H1006V0Z"/>
</mask>
<path d="M1102 96V97H1103V96H1102ZM1101 0V96H1103V0H1101ZM1102 95H1006V97H1102V95Z" fill="#D0D5DD" fill-opacity="0.03" mask="url(#path-23-inside-12_184_3383)"/>
<mask id="path-25-inside-13_184_3383" fill="white">
<path d="M1102 0H1198V96H1102V0Z"/>
</mask>
<path d="M1198 96V97H1199V96H1198ZM1197 0V96H1199V0H1197ZM1198 95H1102V97H1198V95Z" fill="#D0D5DD" fill-opacity="0.03" mask="url(#path-25-inside-13_184_3383)"/>
<mask id="path-27-inside-14_184_3383" fill="white">
<path d="M1198 0H1294V96H1198V0Z"/>
</mask>
<path d="M1294 96V97H1295V96H1294ZM1293 0V96H1295V0H1293ZM1294 95H1198V97H1294V95Z" fill="#D0D5DD" fill-opacity="0.03" mask="url(#path-27-inside-14_184_3383)"/>
<mask id="path-29-inside-15_184_3383" fill="white">
<path d="M1294 0H1390V96H1294V0Z"/>
</mask>
<path d="M1390 96V97H1391V96H1390ZM1389 0V96H1391V0H1389ZM1390 95H1294V97H1390V95Z" fill="#D0D5DD" fill-opacity="0.03" mask="url(#path-29-inside-15_184_3383)"/>
<mask id="path-31-inside-16_184_3383" fill="white">
<path d="M1390 0H1486V96H1390V0Z"/>
</mask>
<path d="M1486 96V97H1487V96H1486ZM1485 0V96H1487V0H1485ZM1486 95H1390V97H1486V95Z" fill="#D0D5DD" fill-opacity="0.03" mask="url(#path-31-inside-16_184_3383)"/>
<mask id="path-33-inside-17_184_3383" fill="white">
<path d="M-50 96H46V192H-50V96Z"/>
</mask>
<path d="M46 192V193H47V192H46ZM45 96V192H47V96H45ZM46 191H-50V193H46V191Z" fill="#D0D5DD" fill-opacity="0.05" mask="url(#path-33-inside-17_184_3383)"/>
<mask id="path-35-inside-18_184_3383" fill="white">
<path d="M46 96H142V192H46V96Z"/>
</mask>
<path d="M142 192V193H143V192H142ZM141 96V192H143V96H141ZM142 191H46V193H142V191Z" fill="#D0D5DD" fill-opacity="0.05" mask="url(#path-35-inside-18_184_3383)"/>
<mask id="path-37-inside-19_184_3383" fill="white">
<path d="M142 96H238V192H142V96Z"/>
</mask>
<path d="M238 192V193H239V192H238ZM237 96V192H239V96H237ZM238 191H142V193H238V191Z" fill="#D0D5DD" fill-opacity="0.05" mask="url(#path-37-inside-19_184_3383)"/>
<mask id="path-39-inside-20_184_3383" fill="white">
<path d="M238 96H334V192H238V96Z"/>
</mask>
<path d="M238 96H334V192H238V96Z" fill="#A7E97F" fill-opacity="0.04"/>
<path d="M334 192V193H335V192H334ZM333 96V192H335V96H333ZM334 191H238V193H334V191Z" fill="#D0D5DD" fill-opacity="0.05" mask="url(#path-39-inside-20_184_3383)"/>
<mask id="path-41-inside-21_184_3383" fill="white">
<path d="M334 96H430V192H334V96Z"/>
</mask>
<path d="M430 192V193H431V192H430ZM429 96V192H431V96H429ZM430 191H334V193H430V191Z" fill="#D0D5DD" fill-opacity="0.05" mask="url(#path-41-inside-21_184_3383)"/>
<mask id="path-43-inside-22_184_3383" fill="white">
<path d="M430 96H526V192H430V96Z"/>
</mask>
<path d="M526 192V193H527V192H526ZM525 96V192H527V96H525ZM526 191H430V193H526V191Z" fill="#D0D5DD" fill-opacity="0.05" mask="url(#path-43-inside-22_184_3383)"/>
<mask id="path-45-inside-23_184_3383" fill="white">
<path d="M526 96H622V192H526V96Z"/>
</mask>
<path d="M622 192V193H623V192H622ZM621 96V192H623V96H621ZM622 191H526V193H622V191Z" fill="#D0D5DD" fill-opacity="0.05" mask="url(#path-45-inside-23_184_3383)"/>
<mask id="path-47-inside-24_184_3383" fill="white">
<path d="M622 96H718V192H622V96Z"/>
</mask>
<path d="M718 192V193H719V192H718ZM717 96V192H719V96H717ZM718 191H622V193H718V191Z" fill="#D0D5DD" fill-opacity="0.05" mask="url(#path-47-inside-24_184_3383)"/>
<mask id="path-49-inside-25_184_3383" fill="white">
<path d="M718 96H814V192H718V96Z"/>
</mask>
<path d="M814 192V193H815V192H814ZM813 96V192H815V96H813ZM814 191H718V193H814V191Z" fill="#D0D5DD" fill-opacity="0.05" mask="url(#path-49-inside-25_184_3383)"/>
<mask id="path-51-inside-26_184_3383" fill="white">
<path d="M814 96H910V192H814V96Z"/>
</mask>
<path d="M910 192V193H911V192H910ZM909 96V192H911V96H909ZM910 191H814V193H910V191Z" fill="#D0D5DD" fill-opacity="0.05" mask="url(#path-51-inside-26_184_3383)"/>
<mask id="path-53-inside-27_184_3383" fill="white">
<path d="M910 96H1006V192H910V96Z"/>
</mask>
<path d="M1006 192V193H1007V192H1006ZM1005 96V192H1007V96H1005ZM1006 191H910V193H1006V191Z" fill="#D0D5DD" fill-opacity="0.05" mask="url(#path-53-inside-27_184_3383)"/>
<mask id="path-55-inside-28_184_3383" fill="white">
<path d="M1006 96H1102V192H1006V96Z"/>
</mask>
<path d="M1102 192V193H1103V192H1102ZM1101 96V192H1103V96H1101ZM1102 191H1006V193H1102V191Z" fill="#D0D5DD" fill-opacity="0.05" mask="url(#path-55-inside-28_184_3383)"/>
<mask id="path-57-inside-29_184_3383" fill="white">
<path d="M1102 96H1198V192H1102V96Z"/>
</mask>
<path d="M1102 96H1198V192H1102V96Z" fill="#A7E97F" fill-opacity="0.04"/>
<path d="M1198 192V193H1199V192H1198ZM1197 96V192H1199V96H1197ZM1198 191H1102V193H1198V191Z" fill="#D0D5DD" fill-opacity="0.05" mask="url(#path-57-inside-29_184_3383)"/>
<mask id="path-59-inside-30_184_3383" fill="white">
<path d="M1198 96H1294V192H1198V96Z"/>
</mask>
<path d="M1294 192V193H1295V192H1294ZM1293 96V192H1295V96H1293ZM1294 191H1198V193H1294V191Z" fill="#D0D5DD" fill-opacity="0.05" mask="url(#path-59-inside-30_184_3383)"/>
<mask id="path-61-inside-31_184_3383" fill="white">
<path d="M1294 96H1390V192H1294V96Z"/>
</mask>
<path d="M1390 192V193H1391V192H1390ZM1389 96V192H1391V96H1389ZM1390 191H1294V193H1390V191Z" fill="#D0D5DD" fill-opacity="0.05" mask="url(#path-61-inside-31_184_3383)"/>
<mask id="path-63-inside-32_184_3383" fill="white">
<path d="M1390 96H1486V192H1390V96Z"/>
</mask>
<path d="M1486 192V193H1487V192H1486ZM1485 96V192H1487V96H1485ZM1486 191H1390V193H1486V191Z" fill="#D0D5DD" fill-opacity="0.05" mask="url(#path-63-inside-32_184_3383)"/>
<mask id="path-65-inside-33_184_3383" fill="white">
<path d="M-50 192H46V288H-50V192Z"/>
</mask>
<path d="M46 288V289H47V288H46ZM45 192V288H47V192H45ZM46 287H-50V289H46V287Z" fill="#D0D5DD" fill-opacity="0.08" mask="url(#path-65-inside-33_184_3383)"/>
<mask id="path-67-inside-34_184_3383" fill="white">
<path d="M46 192H142V288H46V192Z"/>
</mask>
<path d="M142 288V289H143V288H142ZM141 192V288H143V192H141ZM142 287H46V289H142V287Z" fill="#D0D5DD" fill-opacity="0.08" mask="url(#path-67-inside-34_184_3383)"/>
<mask id="path-69-inside-35_184_3383" fill="white">
<path d="M142 192H238V288H142V192Z"/>
</mask>
<path d="M238 288V289H239V288H238ZM237 192V288H239V192H237ZM238 287H142V289H238V287Z" fill="#D0D5DD" fill-opacity="0.08" mask="url(#path-69-inside-35_184_3383)"/>
<mask id="path-71-inside-36_184_3383" fill="white">
<path d="M238 192H334V288H238V192Z"/>
</mask>
<path d="M334 288V289H335V288H334ZM333 192V288H335V192H333ZM334 287H238V289H334V287Z" fill="#D0D5DD" fill-opacity="0.08" mask="url(#path-71-inside-36_184_3383)"/>
<mask id="path-73-inside-37_184_3383" fill="white">
<path d="M334 192H430V288H334V192Z"/>
</mask>
<path d="M430 288V289H431V288H430ZM429 192V288H431V192H429ZM430 287H334V289H430V287Z" fill="#D0D5DD" fill-opacity="0.08" mask="url(#path-73-inside-37_184_3383)"/>
<mask id="path-75-inside-38_184_3383" fill="white">
<path d="M430 192H526V288H430V192Z"/>
</mask>
<path d="M430 192H526V288H430V192Z" fill="#A7E97F" fill-opacity="0.02"/>
<path d="M526 288V289H527V288H526ZM525 192V288H527V192H525ZM526 287H430V289H526V287Z" fill="#D0D5DD" fill-opacity="0.08" mask="url(#path-75-inside-38_184_3383)"/>
<mask id="path-77-inside-39_184_3383" fill="white">
<path d="M526 192H622V288H526V192Z"/>
</mask>
<path d="M622 288V289H623V288H622ZM621 192V288H623V192H621ZM622 287H526V289H622V287Z" fill="#D0D5DD" fill-opacity="0.08" mask="url(#path-77-inside-39_184_3383)"/>
<mask id="path-79-inside-40_184_3383" fill="white">
<path d="M622 192H718V288H622V192Z"/>
</mask>
<path d="M718 288V289H719V288H718ZM717 192V288H719V192H717ZM718 287H622V289H718V287Z" fill="#D0D5DD" fill-opacity="0.08" mask="url(#path-79-inside-40_184_3383)"/>
<mask id="path-81-inside-41_184_3383" fill="white">
<path d="M718 192H814V288H718V192Z"/>
</mask>
<path d="M814 288V289H815V288H814ZM813 192V288H815V192H813ZM814 287H718V289H814V287Z" fill="#D0D5DD" fill-opacity="0.08" mask="url(#path-81-inside-41_184_3383)"/>
<mask id="path-83-inside-42_184_3383" fill="white">
<path d="M814 192H910V288H814V192Z"/>
</mask>
<path d="M814 192H910V288H814V192Z" fill="#A7E97F" fill-opacity="0.02"/>
<path d="M910 288V289H911V288H910ZM909 192V288H911V192H909ZM910 287H814V289H910V287Z" fill="#D0D5DD" fill-opacity="0.08" mask="url(#path-83-inside-42_184_3383)"/>
<mask id="path-85-inside-43_184_3383" fill="white">
<path d="M910 192H1006V288H910V192Z"/>
</mask>
<path d="M1006 288V289H1007V288H1006ZM1005 192V288H1007V192H1005ZM1006 287H910V289H1006V287Z" fill="#D0D5DD" fill-opacity="0.08" mask="url(#path-85-inside-43_184_3383)"/>
<mask id="path-87-inside-44_184_3383" fill="white">
<path d="M1006 192H1102V288H1006V192Z"/>
</mask>
<path d="M1102 288V289H1103V288H1102ZM1101 192V288H1103V192H1101ZM1102 287H1006V289H1102V287Z" fill="#D0D5DD" fill-opacity="0.08" mask="url(#path-87-inside-44_184_3383)"/>
<mask id="path-89-inside-45_184_3383" fill="white">
<path d="M1102 192H1198V288H1102V192Z"/>
</mask>
<path d="M1198 288V289H1199V288H1198ZM1197 192V288H1199V192H1197ZM1198 287H1102V289H1198V287Z" fill="#D0D5DD" fill-opacity="0.08" mask="url(#path-89-inside-45_184_3383)"/>
<mask id="path-91-inside-46_184_3383" fill="white">
<path d="M1198 192H1294V288H1198V192Z"/>
</mask>
<path d="M1294 288V289H1295V288H1294ZM1293 192V288H1295V192H1293ZM1294 287H1198V289H1294V287Z" fill="#D0D5DD" fill-opacity="0.08" mask="url(#path-91-inside-46_184_3383)"/>
<mask id="path-93-inside-47_184_3383" fill="white">
<path d="M1294 192H1390V288H1294V192Z"/>
</mask>
<path d="M1390 288V289H1391V288H1390ZM1389 192V288H1391V192H1389ZM1390 287H1294V289H1390V287Z" fill="#D0D5DD" fill-opacity="0.08" mask="url(#path-93-inside-47_184_3383)"/>
<mask id="path-95-inside-48_184_3383" fill="white">
<path d="M1390 192H1486V288H1390V192Z"/>
</mask>
<path d="M1486 288V289H1487V288H1486ZM1485 192V288H1487V192H1485ZM1486 287H1390V289H1486V287Z" fill="#D0D5DD" fill-opacity="0.08" mask="url(#path-95-inside-48_184_3383)"/>
</g>
</g>
</g>
<defs>
<radialGradient id="paint0_radial_184_3383" cx="0" cy="0" r="1" gradientUnits="userSpaceOnUse" gradientTransform="translate(720 -0.000142694) rotate(90) scale(1197 751.588)">
<stop/>
<stop offset="0.953125" stop-opacity="0"/>
</radialGradient>
<clipPath id="clip0_184_3383">
<rect width="1436" height="1038" fill="white"/>
</clipPath>
<clipPath id="clip1_184_3383">
<rect width="1920" height="1440" fill="white" transform="translate(-242)"/>
</clipPath>
</defs>
</svg>
