<svg width="355" height="182" viewBox="0 0 355 182" fill="none" xmlns="http://www.w3.org/2000/svg">
<g filter="url(#filter0_d_14_12861)">
<g clip-path="url(#clip0_14_12861)">
<rect x="2" y="1" width="351" height="178" rx="16" fill="#1A1D1A"/>
<path opacity="0.5" d="M377.971 -129.566C381.849 -136.038 388.841 -140 396.386 -140H556.055C564.396 -140 569.55 -130.904 565.263 -123.749L456.029 58.5656C452.151 65.0385 445.159 69 437.614 69H277.945C269.604 69 264.45 59.9037 268.737 52.7491L377.971 -129.566Z" fill="#282924"/>
<g filter="url(#filter1_i_14_12861)">
<rect x="22" y="21" width="32" height="32" rx="16" fill="#375DFB"/>
<rect x="22" y="21" width="32" height="32" rx="16" fill="white" fill-opacity="0.1"/>
<path d="M37.9417 40.9516C37.9123 40.9513 37.9717 40.9337 38.1008 41.1078C38.224 41.274 38.3554 41.5461 38.4729 41.9262C38.677 42.5865 38.8147 43.4897 38.8381 44.5121L38.8411 44.9574C38.8294 46.162 38.6622 47.231 38.4143 47.9809C38.2894 48.3585 38.1529 48.6277 38.0266 48.7914C37.8941 48.963 37.8352 48.9444 37.8645 48.9447L37.844 48.932C37.8166 48.9147 37.7691 48.8749 37.7043 48.7875C37.5813 48.6213 37.4507 48.3497 37.3333 47.9701C37.1291 47.3099 36.9914 46.4065 36.968 45.3842L36.9651 44.9389C36.9767 43.7343 37.144 42.6653 37.3918 41.9154C37.5167 41.5377 37.6532 41.2686 37.7795 41.1049C37.8457 41.0192 37.8934 40.9811 37.9211 40.9643L37.9417 40.9516Z" fill="url(#paint0_linear_14_12861)" fill-opacity="0.8" stroke="url(#paint1_linear_14_12861)"/>
<path d="M35.7042 40.2596C35.6817 40.2447 35.7417 40.2653 35.7569 40.4832C35.7714 40.6908 35.7358 40.9912 35.6309 41.3748C35.4486 42.0415 35.0802 42.8762 34.5518 43.7488L34.3155 44.1248C33.6599 45.1314 32.9469 45.9392 32.337 46.4344C32.0299 46.6836 31.7713 46.8345 31.5782 46.9031C31.4775 46.9388 31.4169 46.9451 31.3848 46.9441L31.3604 46.9432C31.3828 46.958 31.323 46.938 31.3077 46.7205C31.2932 46.5129 31.3287 46.2117 31.4337 45.8279C31.616 45.1612 31.9844 44.3264 32.5128 43.4539L32.7491 43.0779C33.4046 42.0713 34.1186 41.2645 34.7286 40.7693C35.0359 40.5199 35.2942 40.3681 35.4874 40.2996C35.5887 40.2637 35.6489 40.2576 35.6807 40.2586L35.7042 40.2596Z" fill="url(#paint2_linear_14_12861)" fill-opacity="0.8" stroke="url(#paint3_linear_14_12861)"/>
<path d="M33.0936 38.3621C33.4853 38.3199 33.7834 38.3331 33.9823 38.3807C34.0856 38.4054 34.1398 38.4333 34.1669 38.452L34.1893 38.4686C34.1796 38.4464 34.2174 38.4969 34.1141 38.6873C34.0153 38.8694 33.8249 39.1026 33.5311 39.368C33.0207 39.829 32.2635 40.3294 31.3514 40.7752L30.952 40.9627C29.8613 41.4519 28.8286 41.742 28.0507 41.826C27.6587 41.8682 27.36 41.855 27.161 41.8074C27.0574 41.7826 27.0034 41.7548 26.9764 41.7361L26.955 41.7195C26.9647 41.7417 26.9258 41.6912 27.0292 41.5008C27.128 41.3187 27.3184 41.0855 27.6122 40.8201C28.1226 40.3591 28.8799 39.8586 29.7919 39.4129L30.1923 39.2254C31.283 38.7362 32.3157 38.446 33.0936 38.3621Z" fill="url(#paint4_linear_14_12861)" fill-opacity="0.8" stroke="url(#paint5_linear_14_12861)"/>
<path d="M27.0868 34.5271C27.7627 34.4176 28.6677 34.4088 29.6737 34.531L30.1112 34.5915C31.2908 34.7746 32.3149 35.0933 33.0145 35.447C33.3669 35.6251 33.6113 35.7988 33.7538 35.948C33.8281 36.0257 33.8588 36.0798 33.8719 36.1111L33.8817 36.1394C33.8854 36.1152 33.8916 36.1779 33.704 36.281C33.5241 36.3797 33.2394 36.4709 32.8505 36.5339C32.1745 36.6434 31.2696 36.6522 30.2635 36.53L29.827 36.4695C28.6472 36.2863 27.6224 35.9677 26.9227 35.614C26.5704 35.4359 26.3259 35.2621 26.1835 35.113C26.109 35.035 26.0783 34.9811 26.0653 34.9499L26.0555 34.9216C26.0519 34.9457 26.0458 34.884 26.2333 34.781C26.4131 34.6822 26.6976 34.5901 27.0868 34.5271Z" fill="url(#paint6_linear_14_12861)" fill-opacity="0.8" stroke="url(#paint7_linear_14_12861)"/>
<path d="M29.1638 28.6837C29.3677 28.6986 29.6569 28.7756 30.0182 28.9347C30.6458 29.2111 31.4119 29.6975 32.1931 30.3488L32.529 30.6378C33.4237 31.4352 34.1148 32.2629 34.5143 32.9425C34.7154 33.2847 34.8278 33.5648 34.8679 33.7687C34.8889 33.8759 34.8863 33.9385 34.8806 33.9718L34.8747 34.0002C34.8927 33.9796 34.8659 34.0352 34.653 34.0197C34.4491 34.0047 34.1606 33.9268 33.7995 33.7677C33.1719 33.4913 32.4058 33.005 31.6247 32.3537L31.2888 32.0646C30.3942 31.2674 29.7029 30.4405 29.3034 29.7609C29.1023 29.4188 28.99 29.1387 28.9499 28.9347C28.9289 28.8279 28.9315 28.765 28.9372 28.7316L28.9431 28.7033C28.9252 28.7235 28.9515 28.6683 29.1638 28.6837Z" fill="url(#paint8_linear_14_12861)" fill-opacity="0.8" stroke="url(#paint9_linear_14_12861)"/>
<path d="M34.6992 25.0544C34.6716 25.0622 34.7232 25.0293 34.8945 25.1589C35.0587 25.2831 35.2606 25.5063 35.4795 25.8376C35.8596 26.413 36.2437 27.2403 36.5518 28.2146L36.6787 28.6404C37.004 29.7993 37.1426 30.8728 37.1143 31.6628C37.1 32.0607 37.0444 32.3581 36.9688 32.5515C36.929 32.6532 36.8933 32.704 36.8711 32.7282L36.8535 32.7468C36.8818 32.7387 36.8303 32.7725 36.6582 32.6423C36.4941 32.5181 36.293 32.2947 36.0742 31.9636C35.6941 31.3883 35.309 30.5609 35.001 29.5866L34.874 29.1599C34.5489 28.0011 34.4111 26.9283 34.4395 26.1384C34.4537 25.7405 34.5093 25.4432 34.585 25.2497C34.6248 25.148 34.6604 25.0973 34.6826 25.073L34.6992 25.0544Z" fill="url(#paint10_linear_14_12861)" fill-opacity="0.8" stroke="url(#paint11_linear_14_12861)"/>
<path d="M41.4932 25.1234C41.4661 25.1151 41.5291 25.116 41.6046 25.3207C41.6764 25.5156 41.726 25.8141 41.7325 26.2123C41.7438 26.9039 41.6237 27.8097 41.3604 28.7972L41.2383 29.225C40.8906 30.3771 40.4316 31.3546 39.9844 32.0033C39.7592 32.33 39.5533 32.5494 39.3868 32.6703C39.2995 32.7336 39.243 32.7568 39.212 32.765L39.1895 32.7709C39.2162 32.7791 39.1535 32.7777 39.0782 32.5736C39.0063 32.3787 38.9568 32.0802 38.9503 31.682C38.939 30.9903 39.059 30.0846 39.3223 29.097L39.4444 28.6693C39.7922 27.5172 40.2511 26.5397 40.6983 25.891C40.9236 25.5642 41.1294 25.3449 41.296 25.224C41.3834 25.1605 41.4398 25.1374 41.4708 25.1293L41.4932 25.1234Z" fill="url(#paint12_linear_14_12861)" fill-opacity="0.8" stroke="url(#paint13_linear_14_12861)"/>
<path opacity="0.9" d="M46.9586 28.8606C47.0658 28.8549 47.1253 28.8671 47.1559 28.8772L47.1793 28.885C47.1635 28.8661 47.2146 28.9043 47.1686 29.1165C47.1245 29.3196 47.0062 29.5976 46.7985 29.9358C46.4374 30.5235 45.8508 31.2195 45.1002 31.9065L44.7692 32.2005C43.8593 32.9798 42.9493 33.5511 42.2262 33.8528C41.8621 34.0047 41.572 34.0772 41.3678 34.0882C41.2612 34.0938 41.2012 34.0826 41.1705 34.0725L41.1471 34.0637C41.1631 34.0828 41.112 34.0453 41.1578 33.8333C41.2019 33.6301 41.3201 33.3512 41.528 33.013C41.889 32.4254 42.4748 31.7291 43.2252 31.0423L43.5573 30.7493C44.4673 29.9697 45.377 29.3977 46.1002 29.096C46.4646 28.944 46.7544 28.8715 46.9586 28.8606Z" fill="url(#paint14_linear_14_12861)" fill-opacity="0.8" stroke="url(#paint15_linear_14_12861)"/>
<path opacity="0.8" d="M45.8965 34.743C47.0795 34.5835 48.1511 34.5987 48.921 34.7391C49.3088 34.8098 49.5917 34.9073 49.7696 35.0096C49.8626 35.0631 49.9069 35.1058 49.9278 35.1317L49.9444 35.1551C49.9413 35.1314 49.964 35.1901 49.8126 35.3426C49.6672 35.4889 49.4194 35.6578 49.0635 35.8289C48.4454 36.1262 47.5796 36.3927 46.5801 36.5614L46.1436 36.6268C44.9606 36.7864 43.8891 36.7721 43.1192 36.6317C42.7314 36.5609 42.4485 36.4635 42.2706 36.3612C42.1777 36.3077 42.1333 36.265 42.1124 36.2391L42.0958 36.2157C42.0989 36.2393 42.0759 36.1799 42.2276 36.0272C42.3729 35.881 42.6209 35.7119 42.9766 35.5408C43.5948 35.2437 44.4607 34.9781 45.46 34.8094L45.8965 34.743Z" fill="url(#paint16_linear_14_12861)" fill-opacity="0.8" stroke="url(#paint17_linear_14_12861)"/>
<path d="M41.9454 38.4604C42.1453 38.4168 42.444 38.4094 42.8351 38.4595C43.5143 38.5465 44.3853 38.7947 45.3165 39.1977L45.7189 39.3794C46.7999 39.8902 47.6939 40.4875 48.2667 41.0259C48.5552 41.297 48.7408 41.5342 48.8361 41.7182C48.8859 41.8146 48.9016 41.875 48.9054 41.9087L48.9064 41.938C48.9171 41.9152 48.9063 41.9766 48.6984 42.022C48.4985 42.0656 48.1997 42.073 47.8087 42.0229C47.1295 41.9359 46.2586 41.6867 45.3273 41.2837L44.9249 41.102C43.844 40.5912 42.9499 39.9939 42.3771 39.4556C42.0888 39.1846 41.903 38.9481 41.8077 38.7641C41.7577 38.6675 41.7432 38.6065 41.7394 38.5727L41.7374 38.5434C41.7266 38.5667 41.737 38.5059 41.9454 38.4604Z" fill="url(#paint18_linear_14_12861)" fill-opacity="0.8" stroke="url(#paint19_linear_14_12861)"/>
<path d="M40.1893 40.3094C40.1653 40.3246 40.2049 40.2778 40.4052 40.3533C40.5969 40.4257 40.8527 40.5822 41.1552 40.8377C41.6803 41.2816 42.2799 41.9661 42.8475 42.8133L43.0887 43.1864C43.7243 44.2057 44.1561 45.1958 44.3495 45.9617C44.4468 46.3473 44.4764 46.648 44.4579 46.8553C44.4482 46.9638 44.4286 47.0234 44.4139 47.0535L44.4012 47.078C44.4255 47.0626 44.3855 47.1094 44.1854 47.034C43.9937 46.9617 43.7378 46.8042 43.4354 46.5487C42.9102 46.1048 42.3107 45.4203 41.743 44.5731L41.5018 44.201C40.8661 43.1815 40.4335 42.1906 40.2401 41.4246C40.1428 41.0392 40.1132 40.7383 40.1317 40.5311C40.1415 40.4222 40.1619 40.3629 40.1766 40.3328L40.1893 40.3094Z" fill="url(#paint20_linear_14_12861)" fill-opacity="0.8" stroke="url(#paint21_linear_14_12861)"/>
</g>
<path d="M78.5027 26.821C80.8352 29.7002 82.1055 33.2946 82.1 37C82.1 40.8565 80.7527 44.398 78.5027 47.179L77.1023 46.0486C79.1759 43.4892 80.305 40.2939 80.3 37C80.3 33.5719 79.103 30.4246 77.1023 27.9514L78.5027 26.821ZM75.0017 29.6479C76.6865 31.7274 77.604 34.3236 77.6 37C77.6 39.7846 76.6271 42.3424 75.0026 44.3521L73.6022 43.2208C75.0275 41.4612 75.8036 39.2645 75.8 37C75.8 34.6438 74.9765 32.4793 73.6022 30.7792L75.0026 29.6479L75.0017 29.6479ZM71.5007 32.4757C72.5376 33.7554 73.1024 35.353 73.1 37C73.1 38.7136 72.5015 40.2877 71.5016 41.5243L70.1012 40.393C70.8786 39.4332 71.3019 38.2351 71.3 37C71.3 35.7148 70.8509 34.534 70.1012 33.607L71.5016 32.4757L71.5007 32.4757ZM67.9997 35.3035C68.3888 35.7832 68.6008 36.3823 68.6 37C68.6 37.6426 68.375 38.233 68.0006 38.6965L65.9 37L68.0006 35.3035L67.9997 35.3035Z" fill="#868C98"/>
<circle cx="311.4" cy="37.0004" r="8.4" fill="#E80B26"/>
<circle cx="322.6" cy="37.0004" r="8.4" fill="#F59D31"/>
<path d="M317 43.2621C318.719 41.724 319.8 39.4889 319.8 37.0011C319.8 34.5132 318.719 32.2781 317 30.74C315.281 32.2781 314.2 34.5132 314.2 37.0011C314.2 39.4889 315.281 41.724 317 43.2621Z" fill="#FC6020"/>
<path opacity="0.5" d="M415.971 -68.5656C419.849 -75.0385 426.841 -79 434.386 -79H594.055C602.396 -79 607.55 -69.9037 603.263 -62.7491L494.029 119.566C490.151 126.038 483.159 130 475.614 130H315.945C307.604 130 302.45 120.904 306.737 113.749L415.971 -68.5656Z" fill="#868C98"/>
<path d="M22.252 110L24.652 101.6H26.932L29.32 110H27.988L27.436 108.02H24.148L23.596 110H22.252ZM24.472 106.82H27.112L25.888 102.404H25.696L24.472 106.82ZM33.242 110.168C32.674 110.168 32.158 110.048 31.694 109.808C31.238 109.568 30.874 109.22 30.602 108.764C30.338 108.308 30.206 107.76 30.206 107.12V106.964C30.206 106.324 30.338 105.78 30.602 105.332C30.874 104.876 31.238 104.528 31.694 104.288C32.158 104.04 32.674 103.916 33.242 103.916C33.81 103.916 34.294 104.02 34.694 104.228C35.094 104.436 35.414 104.712 35.654 105.056C35.902 105.4 36.062 105.78 36.134 106.196L34.934 106.448C34.894 106.184 34.81 105.944 34.682 105.728C34.554 105.512 34.374 105.34 34.142 105.212C33.91 105.084 33.618 105.02 33.266 105.02C32.922 105.02 32.61 105.1 32.33 105.26C32.058 105.412 31.842 105.636 31.682 105.932C31.522 106.22 31.442 106.572 31.442 106.988V107.096C31.442 107.512 31.522 107.868 31.682 108.164C31.842 108.46 32.058 108.684 32.33 108.836C32.61 108.988 32.922 109.064 33.266 109.064C33.786 109.064 34.182 108.932 34.454 108.668C34.726 108.396 34.898 108.052 34.97 107.636L36.17 107.912C36.074 108.32 35.902 108.696 35.654 109.04C35.414 109.384 35.094 109.66 34.694 109.868C34.294 110.068 33.81 110.168 33.242 110.168ZM39.5929 110C39.2329 110 38.9449 109.892 38.7289 109.676C38.5209 109.46 38.4169 109.172 38.4169 108.812V105.128H36.7849V104.084H38.4169V102.128H39.6529V104.084H41.4169V105.128H39.6529V108.596C39.6529 108.836 39.7649 108.956 39.9889 108.956H41.2249V110H39.5929ZM42.869 110V104.084H44.105V110H42.869ZM43.493 103.28C43.253 103.28 43.049 103.204 42.881 103.052C42.721 102.892 42.641 102.688 42.641 102.44C42.641 102.192 42.721 101.992 42.881 101.84C43.049 101.68 43.253 101.6 43.493 101.6C43.741 101.6 43.945 101.68 44.105 101.84C44.265 101.992 44.345 102.192 44.345 102.44C44.345 102.688 44.265 102.892 44.105 103.052C43.945 103.204 43.741 103.28 43.493 103.28ZM47.3073 110L45.3153 104.084H46.6233L48.1953 109.088H48.3873L49.9593 104.084H51.2673L49.2753 110H47.3073ZM54.9678 110.168C54.3678 110.168 53.8438 110.044 53.3958 109.796C52.9478 109.54 52.5958 109.184 52.3398 108.728C52.0918 108.264 51.9678 107.728 51.9678 107.12V106.976C51.9678 106.36 52.0918 105.824 52.3398 105.368C52.5878 104.904 52.9318 104.548 53.3718 104.3C53.8198 104.044 54.3358 103.916 54.9198 103.916C55.4878 103.916 55.9838 104.044 56.4078 104.3C56.8398 104.548 57.1758 104.896 57.4158 105.344C57.6558 105.792 57.7758 106.316 57.7758 106.916V107.384H53.2278C53.2438 107.904 53.4158 108.32 53.7438 108.632C54.0798 108.936 54.4958 109.088 54.9918 109.088C55.4558 109.088 55.8038 108.984 56.0358 108.776C56.2758 108.568 56.4598 108.328 56.5878 108.056L57.6078 108.584C57.4958 108.808 57.3318 109.044 57.1158 109.292C56.9078 109.54 56.6318 109.748 56.2878 109.916C55.9438 110.084 55.5038 110.168 54.9678 110.168ZM53.2398 106.436H56.5158C56.4838 105.988 56.3238 105.64 56.0358 105.392C55.7478 105.136 55.3718 105.008 54.9078 105.008C54.4438 105.008 54.0638 105.136 53.7678 105.392C53.4798 105.64 53.3038 105.988 53.2398 106.436Z" fill="#344054"/>
<path d="M32.016 152.448C30.3947 152.448 28.944 152.16 27.664 151.584C26.384 151.008 25.3707 150.144 24.624 148.992C23.8987 147.819 23.536 146.357 23.536 144.608V143.936H26.192V144.608C26.192 146.464 26.736 147.851 27.824 148.768C28.912 149.664 30.3093 150.112 32.016 150.112C33.7653 150.112 35.0987 149.717 36.016 148.928C36.9333 148.139 37.392 147.147 37.392 145.952C37.392 145.12 37.1893 144.459 36.784 143.968C36.3787 143.477 35.8027 143.083 35.056 142.784C34.3093 142.464 33.4347 142.187 32.432 141.952L30.736 141.536C29.4347 141.195 28.2827 140.779 27.28 140.288C26.2773 139.797 25.488 139.157 24.912 138.368C24.3573 137.557 24.08 136.523 24.08 135.264C24.08 134.005 24.4 132.917 25.04 132C25.68 131.083 26.5653 130.379 27.696 129.888C28.8267 129.397 30.1493 129.152 31.664 129.152C33.1787 129.152 34.5333 129.419 35.728 129.952C36.9227 130.464 37.872 131.232 38.576 132.256C39.28 133.259 39.632 134.528 39.632 136.064V137.408H36.976V136.064C36.976 134.976 36.7413 134.101 36.272 133.44C35.824 132.779 35.1947 132.288 34.384 131.968C33.5947 131.648 32.688 131.488 31.664 131.488C30.192 131.488 29.008 131.819 28.112 132.48C27.216 133.12 26.768 134.037 26.768 135.232C26.768 136.021 26.9493 136.661 27.312 137.152C27.696 137.643 28.24 138.048 28.944 138.368C29.648 138.667 30.4907 138.933 31.472 139.168L33.168 139.584C34.448 139.861 35.6107 140.245 36.656 140.736C37.7013 141.205 38.5227 141.856 39.12 142.688C39.7387 143.499 40.048 144.565 40.048 145.888C40.048 147.211 39.7173 148.363 39.056 149.344C38.3947 150.325 37.456 151.093 36.24 151.648C35.0453 152.181 33.6373 152.448 32.016 152.448ZM30.8 155.712V125.888H33.264V155.712H30.8ZM49.849 152V131.328H49.369L45.017 139.296H42.201L47.545 129.6H52.441V152H49.849ZM64.92 152.448C63.384 152.448 62.008 152.149 60.792 151.552C59.5973 150.933 58.648 150.059 57.944 148.928C57.2613 147.797 56.92 146.453 56.92 144.896V137.088C56.92 135.403 57.2507 133.973 57.912 132.8C58.5733 131.627 59.5013 130.731 60.696 130.112C61.912 129.472 63.352 129.152 65.016 129.152C66.6587 129.152 68.056 129.451 69.208 130.048C70.3813 130.624 71.2667 131.424 71.864 132.448C72.4827 133.451 72.792 134.613 72.792 135.936H70.168C70.168 134.613 69.7413 133.547 68.888 132.736C68.0347 131.904 66.744 131.488 65.016 131.488C63.2667 131.488 61.912 131.968 60.952 132.928C59.992 133.867 59.512 135.168 59.512 136.832V139.936H59.96C60.344 139.296 60.984 138.709 61.88 138.176C62.776 137.621 64.024 137.344 65.624 137.344C66.968 137.344 68.1947 137.643 69.304 138.24C70.4133 138.837 71.2987 139.68 71.96 140.768C72.6213 141.856 72.952 143.147 72.952 144.64V145.024C72.952 146.539 72.6 147.851 71.896 148.96C71.2133 150.069 70.264 150.933 69.048 151.552C67.832 152.149 66.456 152.448 64.92 152.448ZM64.92 150.112C66.5413 150.112 67.8533 149.653 68.856 148.736C69.8587 147.819 70.36 146.571 70.36 144.992V144.736C70.36 143.669 70.1253 142.752 69.656 141.984C69.208 141.216 68.5787 140.619 67.768 140.192C66.9573 139.744 66.008 139.52 64.92 139.52C63.8533 139.52 62.9147 139.744 62.104 140.192C61.2933 140.619 60.6533 141.216 60.184 141.984C59.736 142.752 59.512 143.669 59.512 144.736V144.992C59.512 146.571 60.0133 147.819 61.016 148.736C62.0187 149.653 63.32 150.112 64.92 150.112ZM76.9625 156V154.4H77.8905C78.6585 154.4 79.0425 154.016 79.0425 153.248V152.224H78.5945C77.9758 152.224 77.4532 152.032 77.0265 151.648C76.6212 151.264 76.4185 150.784 76.4185 150.208C76.4185 149.589 76.6212 149.088 77.0265 148.704C77.4532 148.32 77.9758 148.128 78.5945 148.128C79.2132 148.128 79.7252 148.331 80.1305 148.736C80.5358 149.141 80.7385 149.653 80.7385 150.272V153.248C80.7385 155.083 79.8212 156 77.9865 156H76.9625ZM92.3338 152.448C89.7951 152.448 87.7684 151.701 86.2538 150.208C84.7604 148.693 84.0138 146.432 84.0138 143.424V138.176C84.0138 135.189 84.7604 132.939 86.2538 131.424C87.7684 129.909 89.7951 129.152 92.3338 129.152C94.8938 129.152 96.9204 129.909 98.4138 131.424C99.9284 132.939 100.686 135.189 100.686 138.176V143.424C100.686 146.432 99.9284 148.693 98.4138 150.208C96.9204 151.701 94.8938 152.448 92.3338 152.448ZM92.3338 150.112C94.2538 150.112 95.6938 149.536 96.6538 148.384C97.6138 147.232 98.0938 145.621 98.0938 143.552V138.016C98.0938 135.947 97.6031 134.347 96.6218 133.216C95.6404 132.064 94.2111 131.488 92.3338 131.488C90.4564 131.488 89.0271 132.064 88.0458 133.216C87.0858 134.368 86.6058 135.968 86.6058 138.016V143.552C86.6058 145.643 87.0858 147.264 88.0458 148.416C89.0058 149.547 90.4351 150.112 92.3338 150.112ZM112.258 152.448C110.615 152.448 109.196 152.139 108.002 151.52C106.807 150.88 105.879 150.005 105.218 148.896C104.556 147.765 104.226 146.464 104.226 144.992V144.608H106.818V144.896C106.818 146.581 107.308 147.872 108.29 148.768C109.271 149.664 110.572 150.112 112.194 150.112C113.9 150.112 115.234 149.632 116.194 148.672C117.154 147.712 117.634 146.4 117.634 144.736V144.448C117.634 142.848 117.164 141.579 116.226 140.64C115.308 139.68 114.114 139.2 112.642 139.2C111.788 139.2 111.084 139.339 110.53 139.616C109.975 139.872 109.538 140.203 109.218 140.608C108.898 140.992 108.631 141.365 108.418 141.728H104.898V129.6H119.618V131.936H107.49V139.68H107.938C108.172 139.253 108.492 138.837 108.898 138.432C109.324 138.027 109.89 137.685 110.594 137.408C111.298 137.131 112.172 136.992 113.218 136.992C114.519 136.992 115.692 137.291 116.738 137.888C117.804 138.485 118.647 139.339 119.266 140.448C119.906 141.557 120.226 142.88 120.226 144.416V144.768C120.226 146.283 119.906 147.616 119.266 148.768C118.626 149.92 117.708 150.827 116.514 151.488C115.319 152.128 113.9 152.448 112.258 152.448ZM131.702 152.448C129.974 152.448 128.47 152.192 127.19 151.68C125.931 151.147 124.95 150.411 124.246 149.472C123.563 148.512 123.222 147.392 123.222 146.112V145.76C123.222 144.651 123.457 143.733 123.926 143.008C124.395 142.283 124.961 141.728 125.622 141.344C126.305 140.939 126.934 140.683 127.51 140.576V140.16C126.934 139.989 126.337 139.712 125.718 139.328C125.121 138.944 124.619 138.421 124.214 137.76C123.83 137.099 123.638 136.288 123.638 135.328V134.976C123.638 133.76 123.979 132.725 124.662 131.872C125.366 130.997 126.326 130.325 127.542 129.856C128.758 129.387 130.145 129.152 131.702 129.152C133.281 129.152 134.667 129.387 135.862 129.856C137.078 130.325 138.027 130.997 138.71 131.872C139.414 132.725 139.766 133.76 139.766 134.976V135.328C139.766 136.288 139.574 137.099 139.19 137.76C138.806 138.421 138.315 138.944 137.718 139.328C137.121 139.712 136.523 139.989 135.926 140.16V140.576C136.523 140.683 137.153 140.939 137.814 141.344C138.475 141.728 139.03 142.283 139.478 143.008C139.947 143.733 140.182 144.651 140.182 145.76V146.112C140.182 147.392 139.841 148.512 139.158 149.472C138.475 150.411 137.494 151.147 136.214 151.68C134.955 152.192 133.451 152.448 131.702 152.448ZM131.702 150.112C133.515 150.112 134.945 149.76 135.99 149.056C137.057 148.352 137.59 147.328 137.59 145.984V145.728C137.59 144.384 137.067 143.36 136.022 142.656C134.977 141.952 133.537 141.6 131.702 141.6C129.889 141.6 128.459 141.952 127.414 142.656C126.369 143.36 125.846 144.384 125.846 145.728V145.984C125.846 147.328 126.369 148.352 127.414 149.056C128.481 149.76 129.91 150.112 131.702 150.112ZM131.702 139.264C133.409 139.264 134.742 138.944 135.702 138.304C136.683 137.643 137.174 136.715 137.174 135.52V135.264C137.174 134.048 136.683 133.12 135.702 132.48C134.721 131.819 133.387 131.488 131.702 131.488C130.017 131.488 128.683 131.819 127.702 132.48C126.721 133.12 126.23 134.048 126.23 135.264V135.52C126.23 136.715 126.721 137.643 127.702 138.304C128.683 138.944 130.017 139.264 131.702 139.264Z" fill="#E2E4E9"/>
<path d="M145.72 152.448C145.101 152.448 144.578 152.245 144.152 151.84C143.746 151.435 143.544 150.912 143.544 150.272C143.544 149.632 143.746 149.109 144.152 148.704C144.578 148.299 145.101 148.096 145.72 148.096C146.36 148.096 146.882 148.299 147.288 148.704C147.693 149.109 147.896 149.632 147.896 150.272C147.896 150.912 147.693 151.435 147.288 151.84C146.882 152.245 146.36 152.448 145.72 152.448ZM159.318 152.448C157.675 152.448 156.267 152.16 155.094 151.584C153.942 150.987 153.067 150.176 152.47 149.152C151.873 148.128 151.574 146.965 151.574 145.664H154.166C154.166 146.987 154.603 148.064 155.478 148.896C156.353 149.707 157.633 150.112 159.318 150.112C161.089 150.112 162.443 149.643 163.382 148.704C164.342 147.744 164.822 146.432 164.822 144.768V141.664H164.406C164.001 142.304 163.35 142.901 162.454 143.456C161.579 143.989 160.342 144.256 158.742 144.256C157.398 144.256 156.161 143.957 155.03 143.36C153.921 142.763 153.035 141.92 152.374 140.832C151.713 139.744 151.382 138.453 151.382 136.96V136.576C151.382 135.04 151.734 133.728 152.438 132.64C153.142 131.531 154.091 130.677 155.286 130.08C156.502 129.461 157.878 129.152 159.414 129.152C160.971 129.152 162.347 129.461 163.542 130.08C164.758 130.677 165.707 131.541 166.39 132.672C167.073 133.781 167.414 135.125 167.414 136.704V144.512C167.414 146.176 167.083 147.605 166.422 148.8C165.782 149.973 164.854 150.88 163.638 151.52C162.422 152.139 160.982 152.448 159.318 152.448ZM159.414 142.08C160.481 142.08 161.419 141.867 162.23 141.44C163.041 140.992 163.67 140.384 164.118 139.616C164.587 138.827 164.822 137.909 164.822 136.864V136.608C164.822 135.008 164.321 133.76 163.318 132.864C162.337 131.947 161.035 131.488 159.414 131.488C157.793 131.488 156.481 131.947 155.478 132.864C154.475 133.76 153.974 135.008 153.974 136.608V136.864C153.974 137.909 154.198 138.827 154.646 139.616C155.115 140.384 155.755 140.992 156.566 141.44C157.398 141.867 158.347 142.08 159.414 142.08ZM182.048 152V147.424H170.368V144.352L179.776 129.6H184.64V145.088H188.48V147.424H184.64V152H182.048ZM172.96 145.088H182.048V131.168H181.6L172.96 144.704V145.088Z" fill="#868C98"/>
<g filter="url(#filter2_d_14_12861)">
<path d="M98 31C98 27.6863 100.686 25 104 25H161C164.314 25 167 27.6863 167 31V43C167 46.3137 164.314 49 161 49H104C100.686 49 98 46.3137 98 43V31Z" fill="#20231F" shape-rendering="crispEdges"/>
<path d="M104 25.25H161C164.176 25.25 166.75 27.8244 166.75 31V43C166.75 46.1756 164.176 48.75 161 48.75H104C100.824 48.75 98.25 46.1756 98.25 43V31C98.25 27.8244 100.824 25.25 104 25.25Z" stroke="#354133" stroke-width="0.5" shape-rendering="crispEdges"/>
<path d="M112 43C108.686 43 106 40.3138 106 37C106 33.6862 108.686 31 112 31C115.314 31 118 33.6862 118 37C118 40.3138 115.314 43 112 43ZM111.402 39.4L115.644 35.1574L114.795 34.309L111.402 37.7032L109.704 36.0058L108.856 36.8542L111.402 39.4Z" fill="#38C793"/>
<path d="M124.576 41L126.976 32.6H129.256L131.644 41H130.312L129.76 39.02H126.472L125.92 41H124.576ZM126.796 37.82H129.436L128.212 33.404H128.02L126.796 37.82ZM135.566 41.168C134.998 41.168 134.482 41.048 134.018 40.808C133.562 40.568 133.198 40.22 132.926 39.764C132.662 39.308 132.53 38.76 132.53 38.12V37.964C132.53 37.324 132.662 36.78 132.926 36.332C133.198 35.876 133.562 35.528 134.018 35.288C134.482 35.04 134.998 34.916 135.566 34.916C136.134 34.916 136.618 35.02 137.018 35.228C137.418 35.436 137.738 35.712 137.978 36.056C138.226 36.4 138.386 36.78 138.458 37.196L137.258 37.448C137.218 37.184 137.134 36.944 137.006 36.728C136.878 36.512 136.698 36.34 136.466 36.212C136.234 36.084 135.942 36.02 135.59 36.02C135.246 36.02 134.934 36.1 134.654 36.26C134.382 36.412 134.166 36.636 134.006 36.932C133.846 37.22 133.766 37.572 133.766 37.988V38.096C133.766 38.512 133.846 38.868 134.006 39.164C134.166 39.46 134.382 39.684 134.654 39.836C134.934 39.988 135.246 40.064 135.59 40.064C136.11 40.064 136.506 39.932 136.778 39.668C137.05 39.396 137.222 39.052 137.294 38.636L138.494 38.912C138.398 39.32 138.226 39.696 137.978 40.04C137.738 40.384 137.418 40.66 137.018 40.868C136.618 41.068 136.134 41.168 135.566 41.168ZM141.917 41C141.557 41 141.269 40.892 141.053 40.676C140.845 40.46 140.741 40.172 140.741 39.812V36.128H139.109V35.084H140.741V33.128H141.977V35.084H143.741V36.128H141.977V39.596C141.977 39.836 142.089 39.956 142.313 39.956H143.549V41H141.917ZM145.193 41V35.084H146.429V41H145.193ZM145.817 34.28C145.577 34.28 145.373 34.204 145.205 34.052C145.045 33.892 144.965 33.688 144.965 33.44C144.965 33.192 145.045 32.992 145.205 32.84C145.373 32.68 145.577 32.6 145.817 32.6C146.065 32.6 146.269 32.68 146.429 32.84C146.589 32.992 146.669 33.192 146.669 33.44C146.669 33.688 146.589 33.892 146.429 34.052C146.269 34.204 146.065 34.28 145.817 34.28ZM149.632 41L147.64 35.084H148.948L150.52 40.088H150.712L152.284 35.084H153.592L151.6 41H149.632ZM157.292 41.168C156.692 41.168 156.168 41.044 155.72 40.796C155.272 40.54 154.92 40.184 154.664 39.728C154.416 39.264 154.292 38.728 154.292 38.12V37.976C154.292 37.36 154.416 36.824 154.664 36.368C154.912 35.904 155.256 35.548 155.696 35.3C156.144 35.044 156.66 34.916 157.244 34.916C157.812 34.916 158.308 35.044 158.732 35.3C159.164 35.548 159.5 35.896 159.74 36.344C159.98 36.792 160.1 37.316 160.1 37.916V38.384H155.552C155.568 38.904 155.74 39.32 156.068 39.632C156.404 39.936 156.82 40.088 157.316 40.088C157.78 40.088 158.128 39.984 158.36 39.776C158.6 39.568 158.784 39.328 158.912 39.056L159.932 39.584C159.82 39.808 159.656 40.044 159.44 40.292C159.232 40.54 158.956 40.748 158.612 40.916C158.268 41.084 157.828 41.168 157.292 41.168ZM155.564 37.436H158.84C158.808 36.988 158.648 36.64 158.36 36.392C158.072 36.136 157.696 36.008 157.232 36.008C156.768 36.008 156.388 36.136 156.092 36.392C155.804 36.64 155.628 36.988 155.564 37.436Z" fill="#CECFD2"/>
</g>
</g>
<rect x="2.25" y="1.25" width="350.5" height="177.5" rx="15.75" stroke="#1F221F" stroke-width="0.5"/>
</g>
<defs>
<filter id="filter0_d_14_12861" x="0" y="0" width="355" height="182" filterUnits="userSpaceOnUse" color-interpolation-filters="sRGB">
<feFlood flood-opacity="0" result="BackgroundImageFix"/>
<feColorMatrix in="SourceAlpha" type="matrix" values="0 0 0 0 0 0 0 0 0 0 0 0 0 0 0 0 0 0 127 0" result="hardAlpha"/>
<feOffset dy="1"/>
<feGaussianBlur stdDeviation="1"/>
<feComposite in2="hardAlpha" operator="out"/>
<feColorMatrix type="matrix" values="0 0 0 0 0.227451 0 0 0 0 0.227451 0 0 0 0 0.227451 0 0 0 0.24 0"/>
<feBlend mode="normal" in2="BackgroundImageFix" result="effect1_dropShadow_14_12861"/>
<feBlend mode="normal" in="SourceGraphic" in2="effect1_dropShadow_14_12861" result="shape"/>
</filter>
<filter id="filter1_i_14_12861" x="22" y="17" width="32" height="36" filterUnits="userSpaceOnUse" color-interpolation-filters="sRGB">
<feFlood flood-opacity="0" result="BackgroundImageFix"/>
<feBlend mode="normal" in="SourceGraphic" in2="BackgroundImageFix" result="shape"/>
<feColorMatrix in="SourceAlpha" type="matrix" values="0 0 0 0 0 0 0 0 0 0 0 0 0 0 0 0 0 0 127 0" result="hardAlpha"/>
<feOffset dy="-4"/>
<feGaussianBlur stdDeviation="4"/>
<feComposite in2="hardAlpha" operator="arithmetic" k2="-1" k3="1"/>
<feColorMatrix type="matrix" values="0 0 0 0 1 0 0 0 0 1 0 0 0 0 1 0 0 0 0.64 0"/>
<feBlend mode="normal" in2="shape" result="effect1_innerShadow_14_12861"/>
</filter>
<filter id="filter2_d_14_12861" x="96" y="24" width="73" height="28" filterUnits="userSpaceOnUse" color-interpolation-filters="sRGB">
<feFlood flood-opacity="0" result="BackgroundImageFix"/>
<feColorMatrix in="SourceAlpha" type="matrix" values="0 0 0 0 0 0 0 0 0 0 0 0 0 0 0 0 0 0 127 0" result="hardAlpha"/>
<feOffset dy="1"/>
<feGaussianBlur stdDeviation="1"/>
<feComposite in2="hardAlpha" operator="out"/>
<feColorMatrix type="matrix" values="0 0 0 0 0.0627451 0 0 0 0 0.0941176 0 0 0 0 0.156863 0 0 0 0.05 0"/>
<feBlend mode="normal" in2="BackgroundImageFix" result="effect1_dropShadow_14_12861"/>
<feBlend mode="normal" in="SourceGraphic" in2="effect1_dropShadow_14_12861" result="shape"/>
</filter>
<linearGradient id="paint0_linear_14_12861" x1="37.9029" y1="40.4516" x2="37.9029" y2="54.0879" gradientUnits="userSpaceOnUse">
<stop offset="0.313079" stop-color="white"/>
<stop offset="1" stop-color="white" stop-opacity="0"/>
</linearGradient>
<linearGradient id="paint1_linear_14_12861" x1="42.9822" y1="18.6248" x2="29.8298" y2="22.039" gradientUnits="userSpaceOnUse">
<stop stop-color="white"/>
<stop offset="1" stop-color="white" stop-opacity="0"/>
</linearGradient>
<linearGradient id="paint2_linear_14_12861" x1="33.5324" y1="39.7586" x2="33.5324" y2="51.413" gradientUnits="userSpaceOnUse">
<stop offset="0.313079" stop-color="white"/>
<stop offset="1" stop-color="white" stop-opacity="0"/>
</linearGradient>
<linearGradient id="paint3_linear_14_12861" x1="43.1615" y1="21.1042" x2="23.1743" y2="32.613" gradientUnits="userSpaceOnUse">
<stop stop-color="white"/>
<stop offset="1" stop-color="white" stop-opacity="0"/>
</linearGradient>
<linearGradient id="paint4_linear_14_12861" x1="30.5718" y1="37.8367" x2="30.5718" y2="44.683" gradientUnits="userSpaceOnUse">
<stop offset="0.313079" stop-color="white"/>
<stop offset="1" stop-color="white" stop-opacity="0"/>
</linearGradient>
<linearGradient id="paint5_linear_14_12861" x1="45.105" y1="26.8783" x2="32.5077" y2="45.515" gradientUnits="userSpaceOnUse">
<stop stop-color="white"/>
<stop offset="1" stop-color="white" stop-opacity="0"/>
</linearGradient>
<linearGradient id="paint6_linear_14_12861" x1="29.9687" y1="33.9421" x2="29.9687" y2="38.7597" gradientUnits="userSpaceOnUse">
<stop offset="0.313079" stop-color="white"/>
<stop offset="1" stop-color="white" stop-opacity="0"/>
</linearGradient>
<linearGradient id="paint7_linear_14_12861" x1="45.5479" y1="26.231" x2="38.4649" y2="42.1942" gradientUnits="userSpaceOnUse">
<stop stop-color="white"/>
<stop offset="1" stop-color="white" stop-opacity="0"/>
</linearGradient>
<linearGradient id="paint8_linear_14_12861" x1="31.9088" y1="28.1808" x2="31.9088" y2="37.7967" gradientUnits="userSpaceOnUse">
<stop offset="0.313079" stop-color="white"/>
<stop offset="1" stop-color="white" stop-opacity="0"/>
</linearGradient>
<linearGradient id="paint9_linear_14_12861" x1="44.1779" y1="12.7894" x2="25.2408" y2="29.6288" gradientUnits="userSpaceOnUse">
<stop stop-color="white"/>
<stop offset="1" stop-color="white" stop-opacity="0"/>
</linearGradient>
<linearGradient id="paint10_linear_14_12861" x1="35.7766" y1="24.5554" x2="35.7766" y2="37.7325" gradientUnits="userSpaceOnUse">
<stop offset="0.313079" stop-color="white"/>
<stop offset="1" stop-color="white" stop-opacity="0"/>
</linearGradient>
<linearGradient id="paint11_linear_14_12861" x1="42.276" y1="3.46372" x2="26.2105" y2="8.98608" gradientUnits="userSpaceOnUse">
<stop stop-color="white"/>
<stop offset="1" stop-color="white" stop-opacity="0"/>
</linearGradient>
<linearGradient id="paint12_linear_14_12861" x1="40.3412" y1="24.6244" x2="40.3412" y2="37.734" gradientUnits="userSpaceOnUse">
<stop offset="0.313079" stop-color="white"/>
<stop offset="1" stop-color="white" stop-opacity="0"/>
</linearGradient>
<linearGradient id="paint13_linear_14_12861" x1="47.0202" y1="3.64079" x2="30.6267" y2="9.46148" gradientUnits="userSpaceOnUse">
<stop stop-color="white"/>
<stop offset="1" stop-color="white" stop-opacity="0"/>
</linearGradient>
<linearGradient id="paint14_linear_14_12861" x1="44.1631" y1="28.3596" x2="44.1631" y2="37.8062" gradientUnits="userSpaceOnUse">
<stop offset="0.313079" stop-color="white"/>
<stop offset="1" stop-color="white" stop-opacity="0"/>
</linearGradient>
<linearGradient id="paint15_linear_14_12861" x1="56.6061" y1="13.2391" x2="37.9423" y2="30.3722" gradientUnits="userSpaceOnUse">
<stop stop-color="white"/>
<stop offset="1" stop-color="white" stop-opacity="0"/>
</linearGradient>
<linearGradient id="paint16_linear_14_12861" x1="46.0201" y1="34.1287" x2="46.0201" y2="38.8493" gradientUnits="userSpaceOnUse">
<stop offset="0.313079" stop-color="white"/>
<stop offset="1" stop-color="white" stop-opacity="0"/>
</linearGradient>
<linearGradient id="paint17_linear_14_12861" x1="61.6388" y1="26.5729" x2="54.8051" y2="42.3305" gradientUnits="userSpaceOnUse">
<stop stop-color="white"/>
<stop offset="1" stop-color="white" stop-opacity="0"/>
</linearGradient>
<linearGradient id="paint18_linear_14_12861" x1="45.3219" y1="37.9243" x2="45.3219" y2="44.9497" gradientUnits="userSpaceOnUse">
<stop offset="0.313079" stop-color="white"/>
<stop offset="1" stop-color="white" stop-opacity="0"/>
</linearGradient>
<linearGradient id="paint19_linear_14_12861" x1="59.7409" y1="26.6792" x2="46.6569" y2="45.3941" gradientUnits="userSpaceOnUse">
<stop stop-color="white"/>
<stop offset="1" stop-color="white" stop-opacity="0"/>
</linearGradient>
<linearGradient id="paint20_linear_14_12861" x1="42.2952" y1="39.8084" x2="42.2952" y2="51.5903" gradientUnits="userSpaceOnUse">
<stop offset="0.313079" stop-color="white"/>
<stop offset="1" stop-color="white" stop-opacity="0"/>
</linearGradient>
<linearGradient id="paint21_linear_14_12861" x1="51.7149" y1="20.9501" x2="31.8476" y2="32.0201" gradientUnits="userSpaceOnUse">
<stop stop-color="white"/>
<stop offset="1" stop-color="white" stop-opacity="0"/>
</linearGradient>
<clipPath id="clip0_14_12861">
<rect x="2" y="1" width="351" height="178" rx="16" fill="white"/>
</clipPath>
</defs>
</svg>
