<svg width="466" height="182" viewBox="0 0 466 182" fill="none" xmlns="http://www.w3.org/2000/svg">
<g filter="url(#filter0_d_14_12805)">
<rect x="2" y="1" width="462" height="178" rx="16" fill="#1C1D1A"/>
<rect x="2.25" y="1.25" width="461.5" height="177.5" rx="15.75" stroke="#1F221F" stroke-width="0.5"/>
<path d="M21.9 24.9H38.1C38.3387 24.9 38.5676 24.9948 38.7364 25.1636C38.9052 25.3324 39 25.5613 39 25.8V40.2C39 40.4387 38.9052 40.6676 38.7364 40.8364C38.5676 41.0052 38.3387 41.1 38.1 41.1H21.9C21.6613 41.1 21.4324 41.0052 21.2636 40.8364C21.0948 40.6676 21 40.4387 21 40.2V25.8C21 25.5613 21.0948 25.3324 21.2636 25.1636C21.4324 24.9948 21.6613 24.9 21.9 24.9ZM22.8 26.7V39.3H37.2V26.7H22.8ZM25.5 33.9H27.3V37.5H25.5V33.9ZM29.1 28.5H30.9V37.5H29.1V28.5ZM32.7 31.2H34.5V37.5H32.7V31.2Z" fill="#868C98"/>
<path d="M53.84 39V29.368H50.4V27.8H59.008V29.368H55.568V39H53.84ZM62.5154 39.224C61.7154 39.224 61.0167 39.0587 60.4194 38.728C59.822 38.3867 59.3527 37.912 59.0114 37.304C58.6807 36.6853 58.5154 35.9707 58.5154 35.16V34.968C58.5154 34.1467 58.6807 33.432 59.0114 32.824C59.342 32.2053 59.8007 31.7307 60.3874 31.4C60.9847 31.0587 61.6727 30.888 62.4514 30.888C63.2087 30.888 63.87 31.0587 64.4354 31.4C65.0114 31.7307 65.4594 32.1947 65.7794 32.792C66.0994 33.3893 66.2594 34.088 66.2594 34.888V35.512H60.1954C60.2167 36.2053 60.446 36.76 60.8834 37.176C61.3314 37.5813 61.886 37.784 62.5474 37.784C63.166 37.784 63.63 37.6453 63.9394 37.368C64.2594 37.0907 64.5047 36.7707 64.6754 36.408L66.0354 37.112C65.886 37.4107 65.6674 37.7253 65.3794 38.056C65.102 38.3867 64.734 38.664 64.2754 38.888C63.8167 39.112 63.23 39.224 62.5154 39.224ZM60.2114 34.248H64.5794C64.5367 33.6507 64.3234 33.1867 63.9394 32.856C63.5554 32.5147 63.054 32.344 62.4354 32.344C61.8167 32.344 61.31 32.5147 60.9154 32.856C60.5314 33.1867 60.2967 33.6507 60.2114 34.248ZM70.5151 39.224C69.9498 39.224 69.4431 39.128 68.9951 38.936C68.5578 38.744 68.2058 38.4613 67.9391 38.088C67.6831 37.7147 67.5551 37.2613 67.5551 36.728C67.5551 36.184 67.6831 35.736 67.9391 35.384C68.2058 35.0213 68.5631 34.7493 69.0111 34.568C69.4698 34.3867 69.9871 34.296 70.5631 34.296H72.9631V33.784C72.9631 33.3253 72.8245 32.9573 72.5471 32.68C72.2698 32.4027 71.8431 32.264 71.2671 32.264C70.7018 32.264 70.2698 32.3973 69.9711 32.664C69.6725 32.9307 69.4751 33.2773 69.3791 33.704L67.8431 33.208C67.9711 32.7813 68.1738 32.3973 68.4511 32.056C68.7391 31.704 69.1178 31.4213 69.5871 31.208C70.0565 30.9947 70.6218 30.888 71.2831 30.888C72.3071 30.888 73.1125 31.1493 73.6991 31.672C74.2858 32.1947 74.5791 32.936 74.5791 33.896V37.144C74.5791 37.464 74.7285 37.624 75.0271 37.624H75.6991V39H74.4671C74.0938 39 73.7898 38.904 73.5551 38.712C73.3205 38.52 73.2031 38.2587 73.2031 37.928V37.88H72.9631C72.8778 38.04 72.7498 38.2267 72.5791 38.44C72.4085 38.6533 72.1578 38.84 71.8271 39C71.4965 39.1493 71.0591 39.224 70.5151 39.224ZM70.7551 37.864C71.4165 37.864 71.9498 37.6773 72.3551 37.304C72.7605 36.92 72.9631 36.3973 72.9631 35.736V35.576H70.6591C70.2218 35.576 69.8698 35.672 69.6031 35.864C69.3365 36.0453 69.2031 36.3173 69.2031 36.68C69.2031 37.0427 69.3418 37.3307 69.6191 37.544C69.8965 37.7573 70.2751 37.864 70.7551 37.864ZM77.1255 39V31.112H78.7415V32.04H78.9975C79.1468 31.7627 79.3868 31.5173 79.7175 31.304C80.0482 31.0907 80.4962 30.984 81.0615 30.984C81.6482 30.984 82.1175 31.1067 82.4695 31.352C82.8322 31.5867 83.1042 31.8907 83.2855 32.264H83.5415C83.7228 31.9013 83.9842 31.5973 84.3255 31.352C84.6775 31.1067 85.1735 30.984 85.8135 30.984C86.3255 30.984 86.7788 31.0907 87.1735 31.304C87.5682 31.5067 87.8828 31.816 88.1175 32.232C88.3522 32.6373 88.4695 33.144 88.4695 33.752V39H86.8215V33.88C86.8215 33.4 86.6882 33.032 86.4215 32.776C86.1655 32.5093 85.7975 32.376 85.3175 32.376C84.8055 32.376 84.3948 32.5413 84.0855 32.872C83.7762 33.2027 83.6215 33.6773 83.6215 34.296V39H81.9735V33.88C81.9735 33.4 81.8402 33.032 81.5735 32.776C81.3175 32.5093 80.9495 32.376 80.4695 32.376C79.9575 32.376 79.5468 32.5413 79.2375 32.872C78.9282 33.2027 78.7735 33.6773 78.7735 34.296V39H77.1255ZM94.5224 39V27.8H101.578V29.368H96.2504V32.584H101.13V34.152H96.2504V37.432H101.658V39H94.5224ZM102.66 39L105.668 35.016L102.724 31.112H104.66L106.724 33.944H106.98L109.044 31.112H110.996L108.036 35.016L111.044 39H109.076L106.98 36.104H106.724L104.628 39H102.66ZM112.64 42.2V31.112H114.256V32.248H114.512C114.715 31.896 115.019 31.5813 115.424 31.304C115.84 31.0267 116.432 30.888 117.2 30.888C117.862 30.888 118.464 31.048 119.008 31.368C119.563 31.688 120.006 32.152 120.336 32.76C120.678 33.3573 120.848 34.0827 120.848 34.936V35.176C120.848 36.0293 120.683 36.76 120.352 37.368C120.022 37.9653 119.579 38.424 119.024 38.744C118.47 39.064 117.862 39.224 117.2 39.224C116.688 39.224 116.256 39.16 115.904 39.032C115.552 38.904 115.27 38.744 115.056 38.552C114.843 38.3493 114.672 38.1413 114.544 37.928H114.288V42.2H112.64ZM116.72 37.784C117.446 37.784 118.038 37.5547 118.496 37.096C118.955 36.6373 119.184 35.9813 119.184 35.128V34.984C119.184 34.1413 118.95 33.4907 118.48 33.032C118.022 32.5733 117.435 32.344 116.72 32.344C116.016 32.344 115.43 32.5733 114.96 33.032C114.502 33.4907 114.272 34.1413 114.272 34.984V35.128C114.272 35.9813 114.502 36.6373 114.96 37.096C115.43 37.5547 116.016 37.784 116.72 37.784ZM126.33 39.224C125.53 39.224 124.832 39.0587 124.234 38.728C123.637 38.3867 123.168 37.912 122.826 37.304C122.496 36.6853 122.33 35.9707 122.33 35.16V34.968C122.33 34.1467 122.496 33.432 122.826 32.824C123.157 32.2053 123.616 31.7307 124.202 31.4C124.8 31.0587 125.488 30.888 126.266 30.888C127.024 30.888 127.685 31.0587 128.25 31.4C128.826 31.7307 129.274 32.1947 129.594 32.792C129.914 33.3893 130.074 34.088 130.074 34.888V35.512H124.01C124.032 36.2053 124.261 36.76 124.698 37.176C125.146 37.5813 125.701 37.784 126.362 37.784C126.981 37.784 127.445 37.6453 127.754 37.368C128.074 37.0907 128.32 36.7707 128.49 36.408L129.85 37.112C129.701 37.4107 129.482 37.7253 129.194 38.056C128.917 38.3867 128.549 38.664 128.09 38.888C127.632 39.112 127.045 39.224 126.33 39.224ZM124.026 34.248H128.394C128.352 33.6507 128.138 33.1867 127.754 32.856C127.37 32.5147 126.869 32.344 126.25 32.344C125.632 32.344 125.125 32.5147 124.73 32.856C124.346 33.1867 124.112 33.6507 124.026 34.248ZM131.882 39V31.112H133.498V32.296H133.754C133.903 31.976 134.17 31.6773 134.554 31.4C134.938 31.1227 135.509 30.984 136.266 30.984C136.863 30.984 137.391 31.1173 137.85 31.384C138.319 31.6507 138.687 32.0293 138.954 32.52C139.221 33 139.354 33.5813 139.354 34.264V39H137.706V34.392C137.706 33.7093 137.535 33.208 137.194 32.888C136.853 32.5573 136.383 32.392 135.786 32.392C135.103 32.392 134.554 32.616 134.138 33.064C133.733 33.512 133.53 34.1627 133.53 35.016V39H131.882ZM144.782 39.224C143.779 39.224 142.947 39 142.286 38.552C141.624 38.104 141.219 37.4267 141.07 36.52L142.606 36.152C142.691 36.5893 142.835 36.936 143.038 37.192C143.24 37.448 143.491 37.6293 143.79 37.736C144.099 37.8427 144.43 37.896 144.782 37.896C145.304 37.896 145.704 37.7947 145.982 37.592C146.27 37.3893 146.414 37.128 146.414 36.808C146.414 36.488 146.28 36.2533 146.014 36.104C145.747 35.9547 145.352 35.832 144.83 35.736L144.286 35.64C143.752 35.544 143.267 35.4053 142.83 35.224C142.392 35.0427 142.046 34.792 141.79 34.472C141.534 34.152 141.406 33.7413 141.406 33.24C141.406 32.4933 141.683 31.9173 142.238 31.512C142.792 31.096 143.528 30.888 144.446 30.888C145.331 30.888 146.056 31.0907 146.622 31.496C147.198 31.8907 147.571 32.4293 147.742 33.112L146.206 33.544C146.11 33.064 145.907 32.728 145.598 32.536C145.288 32.3333 144.904 32.232 144.446 32.232C143.998 32.232 143.646 32.3173 143.39 32.488C143.134 32.648 143.006 32.8773 143.006 33.176C143.006 33.496 143.128 33.7307 143.374 33.88C143.63 34.0293 143.971 34.1413 144.398 34.216L144.958 34.312C145.523 34.408 146.04 34.5413 146.51 34.712C146.979 34.8827 147.347 35.128 147.614 35.448C147.891 35.768 148.03 36.1947 148.03 36.728C148.03 37.5173 147.736 38.1307 147.15 38.568C146.563 39.0053 145.774 39.224 144.782 39.224ZM153.396 39.224C152.596 39.224 151.897 39.0587 151.3 38.728C150.703 38.3867 150.233 37.912 149.892 37.304C149.561 36.6853 149.396 35.9707 149.396 35.16V34.968C149.396 34.1467 149.561 33.432 149.892 32.824C150.223 32.2053 150.681 31.7307 151.268 31.4C151.865 31.0587 152.553 30.888 153.332 30.888C154.089 30.888 154.751 31.0587 155.316 31.4C155.892 31.7307 156.34 32.1947 156.66 32.792C156.98 33.3893 157.14 34.088 157.14 34.888V35.512H151.076C151.097 36.2053 151.327 36.76 151.764 37.176C152.212 37.5813 152.767 37.784 153.428 37.784C154.047 37.784 154.511 37.6453 154.82 37.368C155.14 37.0907 155.385 36.7707 155.556 36.408L156.916 37.112C156.767 37.4107 156.548 37.7253 156.26 38.056C155.983 38.3867 155.615 38.664 155.156 38.888C154.697 39.112 154.111 39.224 153.396 39.224ZM151.092 34.248H155.46C155.417 33.6507 155.204 33.1867 154.82 32.856C154.436 32.5147 153.935 32.344 153.316 32.344C152.697 32.344 152.191 32.5147 151.796 32.856C151.412 33.1867 151.177 33.6507 151.092 34.248ZM162.18 39.224C161.177 39.224 160.345 39 159.684 38.552C159.022 38.104 158.617 37.4267 158.468 36.52L160.004 36.152C160.089 36.5893 160.233 36.936 160.436 37.192C160.638 37.448 160.889 37.6293 161.188 37.736C161.497 37.8427 161.828 37.896 162.18 37.896C162.702 37.896 163.102 37.7947 163.38 37.592C163.668 37.3893 163.812 37.128 163.812 36.808C163.812 36.488 163.678 36.2533 163.412 36.104C163.145 35.9547 162.75 35.832 162.228 35.736L161.684 35.64C161.15 35.544 160.665 35.4053 160.228 35.224C159.79 35.0427 159.444 34.792 159.188 34.472C158.932 34.152 158.804 33.7413 158.804 33.24C158.804 32.4933 159.081 31.9173 159.636 31.512C160.19 31.096 160.926 30.888 161.844 30.888C162.729 30.888 163.454 31.0907 164.02 31.496C164.596 31.8907 164.969 32.4293 165.14 33.112L163.604 33.544C163.508 33.064 163.305 32.728 162.996 32.536C162.686 32.3333 162.302 32.232 161.844 32.232C161.396 32.232 161.044 32.3173 160.788 32.488C160.532 32.648 160.404 32.8773 160.404 33.176C160.404 33.496 160.526 33.7307 160.772 33.88C161.028 34.0293 161.369 34.1413 161.796 34.216L162.356 34.312C162.921 34.408 163.438 34.5413 163.908 34.712C164.377 34.8827 164.745 35.128 165.012 35.448C165.289 35.768 165.428 36.1947 165.428 36.728C165.428 37.5173 165.134 38.1307 164.548 38.568C163.961 39.0053 163.172 39.224 162.18 39.224Z" fill="#E2E4E9"/>
<line x1="18" y1="64.5" x2="448" y2="64.5" stroke="#282924"/>
<line x1="90.5" y1="81" x2="90.5" y2="147" stroke="#252724" stroke-dasharray="2 2"/>
<path d="M90.0044 165.133C89.3872 165.13 88.8599 164.967 88.4224 164.645C87.9849 164.322 87.6502 163.852 87.4185 163.234C87.1867 162.617 87.0708 161.874 87.0708 161.004C87.0708 160.137 87.1867 159.396 87.4185 158.781C87.6528 158.167 87.9888 157.698 88.4263 157.375C88.8664 157.052 89.3924 156.891 90.0044 156.891C90.6164 156.891 91.1411 157.053 91.5786 157.379C92.0161 157.702 92.3507 158.171 92.5825 158.785C92.8169 159.397 92.9341 160.137 92.9341 161.004C92.9341 161.876 92.8182 162.621 92.5864 163.238C92.3547 163.853 92.02 164.323 91.5825 164.648C91.145 164.971 90.619 165.133 90.0044 165.133ZM90.0044 164.09C90.5461 164.09 90.9692 163.826 91.2739 163.297C91.5812 162.768 91.7349 162.004 91.7349 161.004C91.7349 160.34 91.6646 159.779 91.5239 159.32C91.3859 158.859 91.1867 158.51 90.9263 158.273C90.6685 158.034 90.3612 157.914 90.0044 157.914C89.4653 157.914 89.0422 158.18 88.7349 158.711C88.4276 159.242 88.2726 160.007 88.27 161.004C88.27 161.671 88.339 162.234 88.4771 162.695C88.6177 163.154 88.8169 163.501 89.0747 163.738C89.3325 163.973 89.6424 164.09 90.0044 164.09Z" fill="#868C98"/>
<line x1="159.7" y1="81" x2="159.7" y2="147" stroke="#252724" stroke-dasharray="2 2"/>
<path d="M152.834 165V164.125L155.541 161.32C155.83 161.016 156.069 160.749 156.256 160.52C156.446 160.288 156.588 160.068 156.682 159.859C156.776 159.651 156.822 159.43 156.822 159.195C156.822 158.93 156.76 158.701 156.635 158.508C156.51 158.313 156.339 158.163 156.123 158.059C155.907 157.952 155.664 157.898 155.393 157.898C155.106 157.898 154.856 157.957 154.643 158.074C154.429 158.191 154.265 158.357 154.151 158.57C154.036 158.784 153.979 159.034 153.979 159.32H152.826C152.826 158.833 152.938 158.408 153.162 158.043C153.386 157.678 153.694 157.396 154.084 157.195C154.475 156.992 154.919 156.891 155.416 156.891C155.919 156.891 156.361 156.991 156.744 157.191C157.13 157.389 157.43 157.66 157.647 158.004C157.863 158.345 157.971 158.73 157.971 159.16C157.971 159.457 157.915 159.747 157.803 160.031C157.694 160.315 157.502 160.632 157.229 160.98C156.955 161.327 156.575 161.747 156.088 162.242L154.498 163.906V163.965H158.1V165H152.834ZM159.91 165V157H161.117V160.82H161.214L164.57 157H166.089L162.863 160.602L166.101 165H164.648L162.062 161.426L161.117 162.512V165H159.91Z" fill="#868C98"/>
<line x1="228.9" y1="81" x2="228.9" y2="147" stroke="#252724" stroke-dasharray="2 2"/>
<path d="M221.641 163.438V162.461L225.098 157H225.867V158.437H225.379L222.906 162.352V162.414H227.644V163.438H221.641ZM225.434 165V163.141L225.441 162.695V157H226.586V165H225.434ZM229.335 165V157H230.542V160.82H230.64L233.995 157H235.515L232.288 160.602L235.527 165H234.073L231.488 161.426L230.542 162.512V165H229.335Z" fill="#868C98"/>
<line x1="298.1" y1="81" x2="298.1" y2="147" stroke="#252724" stroke-dasharray="2 2"/>
<path d="M293.904 165.109C293.547 165.104 293.195 165.039 292.849 164.914C292.505 164.789 292.193 164.581 291.911 164.289C291.63 163.997 291.405 163.605 291.236 163.113C291.069 162.621 290.986 162.007 290.986 161.27C290.986 160.572 291.055 159.952 291.193 159.41C291.333 158.868 291.535 158.411 291.798 158.039C292.061 157.664 292.379 157.379 292.751 157.184C293.124 156.988 293.542 156.891 294.005 156.891C294.482 156.891 294.905 156.984 295.275 157.172C295.644 157.359 295.944 157.618 296.173 157.949C296.405 158.28 296.552 158.656 296.615 159.078H295.423C295.342 158.745 295.182 158.473 294.943 158.262C294.703 158.051 294.391 157.945 294.005 157.945C293.419 157.945 292.962 158.201 292.634 158.711C292.309 159.221 292.144 159.931 292.142 160.84H292.2C292.338 160.613 292.508 160.421 292.708 160.262C292.911 160.1 293.138 159.977 293.388 159.891C293.641 159.802 293.906 159.758 294.185 159.758C294.648 159.758 295.068 159.871 295.443 160.098C295.82 160.322 296.121 160.632 296.345 161.027C296.569 161.423 296.681 161.876 296.681 162.387C296.681 162.897 296.565 163.359 296.333 163.773C296.104 164.187 295.781 164.516 295.365 164.758C294.948 164.997 294.461 165.115 293.904 165.109ZM293.9 164.094C294.207 164.094 294.482 164.018 294.724 163.867C294.966 163.716 295.157 163.513 295.298 163.258C295.439 163.003 295.509 162.717 295.509 162.402C295.509 162.095 295.44 161.815 295.302 161.562C295.167 161.31 294.979 161.109 294.74 160.961C294.503 160.812 294.232 160.738 293.927 160.738C293.695 160.738 293.48 160.783 293.282 160.871C293.087 160.96 292.915 161.082 292.767 161.238C292.618 161.395 292.501 161.574 292.415 161.777C292.332 161.978 292.29 162.19 292.29 162.414C292.29 162.714 292.359 162.991 292.497 163.246C292.638 163.501 292.829 163.707 293.072 163.863C293.316 164.017 293.592 164.094 293.9 164.094ZM298.433 165V157H299.64V160.82H299.738L303.093 157H304.613L301.386 160.602L304.625 165H303.171L300.585 161.426L299.64 162.512V165H298.433Z" fill="#868C98"/>
<line x1="367.3" y1="81" x2="367.3" y2="147" stroke="#252724" stroke-dasharray="2 2"/>
<path d="M363.035 165.109C362.475 165.109 361.981 165.013 361.551 164.82C361.124 164.628 360.789 164.362 360.547 164.023C360.305 163.685 360.185 163.299 360.188 162.867C360.185 162.529 360.254 162.217 360.395 161.934C360.538 161.647 360.732 161.409 360.977 161.219C361.221 161.026 361.495 160.904 361.797 160.852V160.805C361.398 160.708 361.079 160.495 360.84 160.164C360.6 159.833 360.482 159.453 360.484 159.023C360.482 158.615 360.59 158.25 360.809 157.93C361.03 157.607 361.333 157.353 361.719 157.168C362.104 156.983 362.543 156.891 363.035 156.891C363.522 156.891 363.957 156.984 364.34 157.172C364.725 157.357 365.029 157.611 365.25 157.934C365.471 158.254 365.583 158.617 365.586 159.023C365.583 159.453 365.461 159.833 365.219 160.164C364.977 160.495 364.662 160.708 364.273 160.805V160.852C364.573 160.904 364.842 161.026 365.082 161.219C365.324 161.409 365.517 161.647 365.66 161.934C365.806 162.217 365.88 162.529 365.883 162.867C365.88 163.299 365.758 163.685 365.516 164.023C365.273 164.362 364.938 164.628 364.508 164.82C364.081 165.013 363.59 165.109 363.035 165.109ZM363.035 164.121C363.366 164.121 363.652 164.066 363.895 163.957C364.137 163.845 364.324 163.69 364.457 163.492C364.59 163.292 364.658 163.057 364.66 162.789C364.658 162.51 364.585 162.264 364.441 162.051C364.301 161.837 364.109 161.669 363.867 161.547C363.625 161.424 363.348 161.363 363.035 161.363C362.72 161.363 362.44 161.424 362.195 161.547C361.951 161.669 361.758 161.837 361.617 162.051C361.477 162.264 361.408 162.51 361.41 162.789C361.408 163.057 361.471 163.292 361.602 163.492C361.734 163.69 361.923 163.845 362.168 163.957C362.413 164.066 362.702 164.121 363.035 164.121ZM363.035 160.398C363.301 160.398 363.537 160.345 363.742 160.238C363.948 160.132 364.109 159.983 364.227 159.793C364.346 159.603 364.408 159.38 364.41 159.125C364.408 158.875 364.348 158.656 364.231 158.469C364.116 158.281 363.956 158.137 363.75 158.035C363.544 157.931 363.306 157.879 363.035 157.879C362.759 157.879 362.517 157.931 362.309 158.035C362.103 158.137 361.943 158.281 361.828 158.469C361.714 158.656 361.658 158.875 361.66 159.125C361.658 159.38 361.715 159.603 361.832 159.793C361.949 159.983 362.111 160.132 362.316 160.238C362.525 160.345 362.764 160.398 363.035 160.398ZM367.612 165V157H368.819V160.82H368.916L372.272 157H373.791L370.565 160.602L373.803 165H372.35L369.764 161.426L368.819 162.512V165H367.612Z" fill="#868C98"/>
<line x1="436.5" y1="81" x2="436.5" y2="147" stroke="#252724" stroke-dasharray="2 2"/>
<path d="M429.782 157V165H428.572V158.211H428.525L426.611 159.461V158.305L428.607 157H429.782ZM434.952 165.133C434.334 165.13 433.807 164.967 433.37 164.645C432.932 164.322 432.597 163.852 432.366 163.234C432.134 162.617 432.018 161.874 432.018 161.004C432.018 160.137 432.134 159.396 432.366 158.781C432.6 158.167 432.936 157.698 433.374 157.375C433.814 157.052 434.34 156.891 434.952 156.891C435.564 156.891 436.088 157.053 436.526 157.379C436.963 157.702 437.298 158.171 437.53 158.785C437.764 159.397 437.881 160.137 437.881 161.004C437.881 161.876 437.765 162.621 437.534 163.238C437.302 163.853 436.967 164.323 436.53 164.648C436.092 164.971 435.566 165.133 434.952 165.133ZM434.952 164.09C435.493 164.09 435.917 163.826 436.221 163.297C436.528 162.768 436.682 162.004 436.682 161.004C436.682 160.34 436.612 159.779 436.471 159.32C436.333 158.859 436.134 158.51 435.874 158.273C435.616 158.034 435.308 157.914 434.952 157.914C434.413 157.914 433.989 158.18 433.682 158.711C433.375 159.242 433.22 160.007 433.217 161.004C433.217 161.671 433.286 162.234 433.424 162.695C433.565 163.154 433.764 163.501 434.022 163.738C434.28 163.973 434.59 164.09 434.952 164.09ZM439.596 165V157H440.803V160.82H440.901L444.257 157H445.776L442.55 160.602L445.788 165H444.335L441.749 161.426L440.803 162.512V165H439.596Z" fill="#868C98"/>
<path d="M19.0568 141V132.273H24.2898V133.21H20.1136V136.159H23.8977V137.097H20.1136V141H19.0568ZM28.142 141.136C27.5511 141.136 27.0327 140.996 26.5866 140.714C26.1435 140.433 25.7969 140.04 25.5469 139.534C25.2997 139.028 25.1761 138.437 25.1761 137.761C25.1761 137.08 25.2997 136.484 25.5469 135.976C25.7969 135.467 26.1435 135.072 26.5866 134.791C27.0327 134.51 27.5511 134.369 28.142 134.369C28.733 134.369 29.25 134.51 29.6932 134.791C30.1392 135.072 30.4858 135.467 30.733 135.976C30.983 136.484 31.108 137.08 31.108 137.761C31.108 138.437 30.983 139.028 30.733 139.534C30.4858 140.04 30.1392 140.433 29.6932 140.714C29.25 140.996 28.733 141.136 28.142 141.136ZM28.142 140.233C28.5909 140.233 28.9602 140.118 29.25 139.888C29.5398 139.658 29.7543 139.355 29.8935 138.98C30.0327 138.605 30.1023 138.199 30.1023 137.761C30.1023 137.324 30.0327 136.916 29.8935 136.538C29.7543 136.161 29.5398 135.855 29.25 135.622C28.9602 135.389 28.5909 135.273 28.142 135.273C27.6932 135.273 27.3239 135.389 27.0341 135.622C26.7443 135.855 26.5298 136.161 26.3906 136.538C26.2514 136.916 26.1818 137.324 26.1818 137.761C26.1818 138.199 26.2514 138.605 26.3906 138.98C26.5298 139.355 26.7443 139.658 27.0341 139.888C27.3239 140.118 27.6932 140.233 28.142 140.233ZM35.3022 141.136C34.7113 141.136 34.1928 140.996 33.7468 140.714C33.3036 140.433 32.957 140.04 32.707 139.534C32.4599 139.028 32.3363 138.437 32.3363 137.761C32.3363 137.08 32.4599 136.484 32.707 135.976C32.957 135.467 33.3036 135.072 33.7468 134.791C34.1928 134.51 34.7113 134.369 35.3022 134.369C35.8931 134.369 36.4102 134.51 36.8533 134.791C37.2994 135.072 37.646 135.467 37.8931 135.976C38.1431 136.484 38.2681 137.08 38.2681 137.761C38.2681 138.437 38.1431 139.028 37.8931 139.534C37.646 140.04 37.2994 140.433 36.8533 140.714C36.4102 140.996 35.8931 141.136 35.3022 141.136ZM35.3022 140.233C35.7511 140.233 36.1204 140.118 36.4102 139.888C36.6999 139.658 36.9144 139.355 37.0536 138.98C37.1928 138.605 37.2624 138.199 37.2624 137.761C37.2624 137.324 37.1928 136.916 37.0536 136.538C36.9144 136.161 36.6999 135.855 36.4102 135.622C36.1204 135.389 35.7511 135.273 35.3022 135.273C34.8533 135.273 34.484 135.389 34.1942 135.622C33.9045 135.855 33.69 136.161 33.5508 136.538C33.4116 136.916 33.342 137.324 33.342 137.761C33.342 138.199 33.4116 138.605 33.5508 138.98C33.69 139.355 33.9045 139.658 34.1942 139.888C34.484 140.118 34.8533 140.233 35.3022 140.233ZM42.2749 141.136C41.7294 141.136 41.2479 140.999 40.8303 140.723C40.4126 140.445 40.0859 140.053 39.8501 139.547C39.6143 139.038 39.4964 138.438 39.4964 137.744C39.4964 137.057 39.6143 136.46 39.8501 135.955C40.0859 135.449 40.4141 135.058 40.8345 134.783C41.255 134.507 41.7408 134.369 42.2919 134.369C42.718 134.369 43.0547 134.44 43.3018 134.582C43.5518 134.722 43.7422 134.881 43.8729 135.06C44.0064 135.236 44.1101 135.381 44.1839 135.494H44.2692V132.273H45.2749V141H44.3033V139.994H44.1839C44.1101 140.114 44.005 140.264 43.8686 140.446C43.7322 140.625 43.5376 140.786 43.2848 140.928C43.032 141.067 42.6953 141.136 42.2749 141.136ZM42.4112 140.233C42.8146 140.233 43.1555 140.128 43.4339 139.918C43.7124 139.705 43.924 139.411 44.0689 139.036C44.2138 138.658 44.2862 138.222 44.2862 137.727C44.2862 137.239 44.2152 136.811 44.0732 136.445C43.9311 136.075 43.7209 135.788 43.4425 135.584C43.1641 135.376 42.8203 135.273 42.4112 135.273C41.9851 135.273 41.63 135.382 41.3459 135.601C41.0646 135.817 40.853 136.111 40.7109 136.483C40.5717 136.852 40.5021 137.267 40.5021 137.727C40.5021 138.193 40.5732 138.616 40.7152 138.997C40.8601 139.375 41.0732 139.676 41.3544 139.901C41.6385 140.122 41.9908 140.233 42.4112 140.233Z" fill="#A9A29D"/>
<path d="M90 129H240C244.418 129 248 132.582 248 137C248 141.418 244.418 145 240 145H90V129Z" fill="#7BAE5C"/>
<path d="M26.0795 87H25.0227C24.9602 86.696 24.8509 86.429 24.6946 86.1989C24.5412 85.9688 24.3537 85.7756 24.1321 85.6193C23.9134 85.4602 23.6705 85.3409 23.4034 85.2614C23.1364 85.1818 22.858 85.142 22.5682 85.142C22.0398 85.142 21.5611 85.2756 21.1321 85.5426C20.706 85.8097 20.3665 86.2031 20.1136 86.723C19.8636 87.2429 19.7386 87.8807 19.7386 88.6364C19.7386 89.392 19.8636 90.0298 20.1136 90.5497C20.3665 91.0696 20.706 91.4631 21.1321 91.7301C21.5611 91.9972 22.0398 92.1307 22.5682 92.1307C22.858 92.1307 23.1364 92.0909 23.4034 92.0114C23.6705 91.9318 23.9134 91.8139 24.1321 91.6577C24.3537 91.4986 24.5412 91.304 24.6946 91.0739C24.8509 90.8409 24.9602 90.5739 25.0227 90.2727H26.0795C26 90.7187 25.8551 91.1179 25.6449 91.4702C25.4347 91.8224 25.1733 92.1222 24.8608 92.3693C24.5483 92.6136 24.1974 92.7997 23.8082 92.9276C23.4219 93.0554 23.0085 93.1193 22.5682 93.1193C21.8239 93.1193 21.1619 92.9375 20.5824 92.5739C20.0028 92.2102 19.5469 91.6932 19.2145 91.0227C18.8821 90.3523 18.7159 89.5568 18.7159 88.6364C18.7159 87.7159 18.8821 86.9205 19.2145 86.25C19.5469 85.5795 20.0028 85.0625 20.5824 84.6989C21.1619 84.3352 21.8239 84.1534 22.5682 84.1534C23.0085 84.1534 23.4219 84.2173 23.8082 84.3452C24.1974 84.473 24.5483 84.6605 24.8608 84.9077C25.1733 85.152 25.4347 85.4503 25.6449 85.8026C25.8551 86.152 26 86.5511 26.0795 87ZM30.31 93.1364C29.7191 93.1364 29.2006 92.9957 28.7546 92.7145C28.3114 92.4332 27.9648 92.0398 27.7148 91.5341C27.4677 91.0284 27.3441 90.4375 27.3441 89.7614C27.3441 89.0795 27.4677 88.4844 27.7148 87.9759C27.9648 87.4673 28.3114 87.0724 28.7546 86.7912C29.2006 86.5099 29.7191 86.3693 30.31 86.3693C30.9009 86.3693 31.418 86.5099 31.8612 86.7912C32.3072 87.0724 32.6538 87.4673 32.9009 87.9759C33.1509 88.4844 33.2759 89.0795 33.2759 89.7614C33.2759 90.4375 33.1509 91.0284 32.9009 91.5341C32.6538 92.0398 32.3072 92.4332 31.8612 92.7145C31.418 92.9957 30.9009 93.1364 30.31 93.1364ZM30.31 92.233C30.7589 92.233 31.1282 92.1179 31.418 91.8878C31.7077 91.6577 31.9222 91.3551 32.0614 90.9801C32.2006 90.6051 32.2702 90.1989 32.2702 89.7614C32.2702 89.3239 32.2006 88.9162 32.0614 88.5384C31.9222 88.1605 31.7077 87.8551 31.418 87.6222C31.1282 87.3892 30.7589 87.2727 30.31 87.2727C29.8612 87.2727 29.4918 87.3892 29.2021 87.6222C28.9123 87.8551 28.6978 88.1605 28.5586 88.5384C28.4194 88.9162 28.3498 89.3239 28.3498 89.7614C28.3498 90.1989 28.4194 90.6051 28.5586 90.9801C28.6978 91.3551 28.9123 91.6577 29.2021 91.8878C29.4918 92.1179 29.8612 92.233 30.31 92.233ZM37.7259 86.4545V87.3068H34.1974V86.4545H37.7259ZM35.2543 93V85.5511C35.2543 85.1761 35.3423 84.8636 35.5185 84.6136C35.6946 84.3636 35.9233 84.1761 36.2045 84.0511C36.4858 83.9261 36.7827 83.8636 37.0952 83.8636C37.3423 83.8636 37.544 83.8835 37.7003 83.9233C37.8565 83.9631 37.973 84 38.0497 84.0341L37.7599 84.9034C37.7088 84.8864 37.6378 84.8651 37.5469 84.8395C37.4588 84.8139 37.3423 84.8011 37.1974 84.8011C36.8651 84.8011 36.625 84.8849 36.4773 85.0526C36.3324 85.2202 36.2599 85.4659 36.2599 85.7898V93H35.2543ZM42.0501 86.4545V87.3068H38.5217V86.4545H42.0501ZM39.5785 93V85.5511C39.5785 85.1761 39.6665 84.8636 39.8427 84.6136C40.0188 84.3636 40.2475 84.1761 40.5288 84.0511C40.81 83.9261 41.1069 83.8636 41.4194 83.8636C41.6665 83.8636 41.8683 83.8835 42.0245 83.9233C42.1808 83.9631 42.2972 84 42.3739 84.0341L42.0842 84.9034C42.033 84.8864 41.962 84.8651 41.8711 84.8395C41.783 84.8139 41.6665 84.8011 41.5217 84.8011C41.1893 84.8011 40.9492 84.8849 40.8015 85.0526C40.6566 85.2202 40.5842 85.4659 40.5842 85.7898V93H39.5785ZM45.9343 93.1364C45.3036 93.1364 44.7596 92.9972 44.3022 92.7188C43.8477 92.4375 43.4968 92.0455 43.2496 91.5426C43.0053 91.0369 42.8832 90.4489 42.8832 89.7784C42.8832 89.108 43.0053 88.517 43.2496 88.0057C43.4968 87.4915 43.8406 87.0909 44.2809 86.804C44.7241 86.5142 45.2411 86.3693 45.832 86.3693C46.1729 86.3693 46.5096 86.4261 46.842 86.5398C47.1744 86.6534 47.4769 86.8381 47.7496 87.0938C48.0224 87.3466 48.2397 87.6818 48.4016 88.0994C48.5636 88.517 48.6445 89.0312 48.6445 89.642V90.0682H43.5991V89.1989H47.6218C47.6218 88.8295 47.5479 88.5 47.4002 88.2102C47.2553 87.9205 47.0479 87.6918 46.7781 87.5241C46.511 87.3565 46.1957 87.2727 45.832 87.2727C45.4315 87.2727 45.0849 87.3722 44.7923 87.571C44.5025 87.767 44.2795 88.0227 44.1232 88.3381C43.967 88.6534 43.8888 88.9915 43.8888 89.3523V89.9318C43.8888 90.4261 43.9741 90.8452 44.1445 91.1889C44.3178 91.5298 44.5579 91.7898 44.8647 91.9688C45.1715 92.1449 45.5281 92.233 45.9343 92.233C46.1985 92.233 46.4371 92.196 46.6502 92.1222C46.8661 92.0455 47.0522 91.9318 47.2085 91.7812C47.3647 91.6278 47.4854 91.4375 47.5707 91.2102L48.5423 91.483C48.44 91.8125 48.2681 92.1023 48.0266 92.3523C47.7852 92.5994 47.4869 92.7926 47.1317 92.9318C46.7766 93.0682 46.3775 93.1364 45.9343 93.1364ZM52.9187 93.1364C52.288 93.1364 51.744 92.9972 51.2866 92.7188C50.832 92.4375 50.4812 92.0455 50.234 91.5426C49.9897 91.0369 49.8675 90.4489 49.8675 89.7784C49.8675 89.108 49.9897 88.517 50.234 88.0057C50.4812 87.4915 50.8249 87.0909 51.2653 86.804C51.7085 86.5142 52.2255 86.3693 52.8164 86.3693C53.1573 86.3693 53.494 86.4261 53.8263 86.5398C54.1587 86.6534 54.4613 86.8381 54.734 87.0938C55.0067 87.3466 55.2241 87.6818 55.386 88.0994C55.5479 88.517 55.6289 89.0312 55.6289 89.642V90.0682H50.5835V89.1989H54.6062C54.6062 88.8295 54.5323 88.5 54.3846 88.2102C54.2397 87.9205 54.0323 87.6918 53.7624 87.5241C53.4954 87.3565 53.18 87.2727 52.8164 87.2727C52.4158 87.2727 52.0692 87.3722 51.7766 87.571C51.4869 87.767 51.2638 88.0227 51.1076 88.3381C50.9513 88.6534 50.8732 88.9915 50.8732 89.3523V89.9318C50.8732 90.4261 50.9585 90.8452 51.1289 91.1889C51.3022 91.5298 51.5423 91.7898 51.8491 91.9688C52.1559 92.1449 52.5124 92.233 52.9187 92.233C53.1829 92.233 53.4215 92.196 53.6346 92.1222C53.8505 92.0455 54.0366 91.9318 54.1928 91.7812C54.3491 91.6278 54.4698 91.4375 54.555 91.2102L55.5266 91.483C55.4244 91.8125 55.2525 92.1023 55.011 92.3523C54.7695 92.5994 54.4712 92.7926 54.1161 92.9318C53.761 93.0682 53.3619 93.1364 52.9187 93.1364Z" fill="#A9A29D"/>
<path d="M90 81H429C433.418 81 437 84.5817 437 89C437 93.4183 433.418 97 429 97H90V81Z" fill="url(#paint0_linear_14_12805)"/>
<path d="M19.0568 117V108.273H24.2898V109.21H20.1136V112.159H23.8977V113.097H20.1136V117H19.0568ZM29.6783 114.324V110.455H30.6839V117H29.6783V115.892H29.6101C29.4567 116.224 29.218 116.507 28.8942 116.74C28.5703 116.97 28.1612 117.085 27.6669 117.085C27.2578 117.085 26.8942 116.996 26.576 116.817C26.2578 116.635 26.0078 116.362 25.826 115.999C25.6442 115.632 25.5533 115.17 25.5533 114.614V110.455H26.5589V114.545C26.5589 115.023 26.6925 115.403 26.9595 115.688C27.2294 115.972 27.5732 116.114 27.9908 116.114C28.2408 116.114 28.495 116.05 28.7536 115.922C29.0149 115.794 29.2337 115.598 29.4098 115.334C29.5888 115.07 29.6783 114.733 29.6783 114.324ZM33.5316 113.062V117H32.5259V110.455H33.4975V111.477H33.5827C33.7362 111.145 33.9691 110.878 34.2816 110.676C34.5941 110.472 34.9975 110.369 35.4918 110.369C35.935 110.369 36.3228 110.46 36.6552 110.642C36.9876 110.821 37.2461 111.094 37.4308 111.46C37.6154 111.824 37.7077 112.284 37.7077 112.841V117H36.7021V112.909C36.7021 112.395 36.5685 111.994 36.3015 111.707C36.0344 111.418 35.668 111.273 35.2021 111.273C34.881 111.273 34.5941 111.342 34.3413 111.482C34.0913 111.621 33.8938 111.824 33.7489 112.091C33.604 112.358 33.5316 112.682 33.5316 113.062Z" fill="#A9A29D"/>
<path d="M90 105H335C339.418 105 343 108.582 343 113C343 117.418 339.418 121 335 121H90V105Z" fill="#5FE935"/>
<g filter="url(#filter1_d_14_12805)">
<circle cx="335" cy="113" r="4" fill="#35B9E9"/>
<circle cx="335" cy="113" r="3.25" stroke="white" stroke-width="1.5"/>
</g>
<g filter="url(#filter2_d_14_12805)">
<path d="M336.27 125.28C335.99 124.92 335.64 124.19 335.03 123.28C334.68 122.78 333.82 121.83 333.56 121.34C333.372 121.042 333.318 120.68 333.41 120.34C333.567 119.694 334.179 119.266 334.84 119.34C335.351 119.443 335.82 119.693 336.19 120.06C336.448 120.303 336.686 120.567 336.9 120.85C337.06 121.05 337.1 121.13 337.28 121.36C337.46 121.59 337.58 121.82 337.49 121.48C337.42 120.98 337.3 120.14 337.13 119.39C337 118.82 336.97 118.73 336.85 118.3C336.73 117.87 336.66 117.51 336.53 117.02C336.411 116.538 336.318 116.051 336.25 115.56C336.124 114.932 336.216 114.279 336.51 113.71C336.859 113.381 337.372 113.295 337.81 113.49C338.25 113.815 338.579 114.27 338.75 114.79C339.012 115.43 339.187 116.103 339.27 116.79C339.43 117.79 339.74 119.25 339.75 119.55C339.75 119.18 339.68 118.4 339.75 118.05C339.819 117.685 340.073 117.382 340.42 117.25C340.718 117.159 341.033 117.138 341.34 117.19C341.65 117.255 341.925 117.433 342.11 117.69C342.342 118.273 342.47 118.893 342.49 119.52C342.517 118.971 342.611 118.426 342.77 117.9C342.937 117.664 343.181 117.495 343.46 117.42C343.79 117.359 344.129 117.359 344.46 117.42C344.731 117.511 344.968 117.681 345.14 117.91C345.352 118.44 345.48 119 345.52 119.57C345.52 119.71 345.59 119.18 345.81 118.83C345.924 118.491 346.211 118.238 346.562 118.167C346.913 118.097 347.275 118.218 347.512 118.487C347.749 118.756 347.824 119.131 347.71 119.47C347.71 120.12 347.71 120.09 347.71 120.53C347.71 120.97 347.71 121.36 347.71 121.73C347.673 122.315 347.593 122.897 347.47 123.47C347.296 123.977 347.054 124.458 346.75 124.9C346.264 125.44 345.863 126.05 345.56 126.71C345.485 127.038 345.451 127.374 345.46 127.71C345.459 128.021 345.499 128.33 345.58 128.63C345.171 128.673 344.759 128.673 344.35 128.63C343.96 128.57 343.48 127.79 343.35 127.55C343.286 127.421 343.154 127.34 343.01 127.34C342.866 127.34 342.734 127.421 342.67 127.55C342.45 127.93 341.96 128.62 341.62 128.66C340.95 128.74 339.57 128.66 338.48 128.66C338.48 128.66 338.66 127.66 338.25 127.3C337.84 126.94 337.42 126.52 337.11 126.24L336.27 125.28Z" fill="white"/>
<path fill-rule="evenodd" clip-rule="evenodd" d="M336.27 125.28C335.99 124.92 335.64 124.19 335.03 123.28C334.68 122.78 333.82 121.83 333.56 121.34C333.372 121.042 333.318 120.68 333.41 120.34C333.567 119.694 334.179 119.266 334.84 119.34C335.351 119.443 335.82 119.693 336.19 120.06C336.448 120.303 336.686 120.567 336.9 120.85C337.06 121.05 337.1 121.13 337.28 121.36C337.46 121.59 337.58 121.82 337.49 121.48C337.42 120.98 337.3 120.14 337.13 119.39C337 118.82 336.97 118.73 336.85 118.3C336.73 117.87 336.66 117.51 336.53 117.02C336.411 116.538 336.318 116.051 336.25 115.56C336.124 114.932 336.216 114.279 336.51 113.71C336.859 113.381 337.372 113.295 337.81 113.49C338.25 113.815 338.579 114.27 338.75 114.79C339.012 115.43 339.187 116.103 339.27 116.79C339.43 117.79 339.74 119.25 339.75 119.55C339.75 119.18 339.68 118.4 339.75 118.05C339.819 117.685 340.073 117.382 340.42 117.25C340.718 117.159 341.033 117.138 341.34 117.19C341.65 117.255 341.925 117.433 342.11 117.69C342.342 118.273 342.47 118.893 342.49 119.52C342.517 118.971 342.611 118.426 342.77 117.9C342.937 117.664 343.181 117.495 343.46 117.42C343.79 117.359 344.129 117.359 344.46 117.42C344.731 117.511 344.968 117.681 345.14 117.91C345.352 118.44 345.48 119 345.52 119.57C345.52 119.71 345.59 119.18 345.81 118.83C345.924 118.491 346.211 118.238 346.562 118.167C346.913 118.097 347.275 118.218 347.512 118.487C347.749 118.756 347.824 119.131 347.71 119.47C347.71 120.12 347.71 120.09 347.71 120.53C347.71 120.97 347.71 121.36 347.71 121.73C347.673 122.315 347.593 122.897 347.47 123.47C347.296 123.977 347.054 124.458 346.75 124.9C346.264 125.44 345.863 126.05 345.56 126.71C345.485 127.038 345.451 127.374 345.46 127.71C345.459 128.021 345.499 128.33 345.58 128.63C345.171 128.673 344.759 128.673 344.35 128.63C343.96 128.57 343.48 127.79 343.35 127.55C343.286 127.421 343.154 127.34 343.01 127.34C342.866 127.34 342.734 127.421 342.67 127.55C342.45 127.93 341.96 128.62 341.62 128.66C340.95 128.74 339.57 128.66 338.48 128.66C338.48 128.66 338.66 127.66 338.25 127.3C337.84 126.94 337.42 126.52 337.11 126.24L336.27 125.28Z" stroke="#0A0D14" stroke-width="0.75" stroke-linecap="round" stroke-linejoin="round"/>
<path d="M344.75 125.826V122.374C344.75 122.167 344.582 122 344.375 122C344.168 122 344 122.167 344 122.374V125.826C344 126.032 344.168 126.2 344.375 126.2C344.582 126.2 344.75 126.032 344.75 125.826Z" fill="#0A0D14"/>
<path d="M342.77 125.825L342.75 122.371C342.749 122.165 342.58 121.999 342.373 122C342.166 122.001 341.999 122.169 342 122.375L342.02 125.829C342.021 126.035 342.19 126.201 342.397 126.2C342.604 126.199 342.771 126.031 342.77 125.825Z" fill="#0A0D14"/>
<path d="M340 122.379L340.02 125.825C340.021 126.033 340.19 126.201 340.397 126.2C340.604 126.199 340.771 126.029 340.77 125.821L340.75 122.375C340.749 122.166 340.58 121.999 340.373 122C340.166 122.001 339.999 122.171 340 122.379Z" fill="#0A0D14"/>
</g>
<g filter="url(#filter3_d_14_12805)">
<path d="M294 75C294 71.6863 296.686 69 300 69H370C373.314 69 376 71.6863 376 75V91C376 94.3137 373.314 97 370 97H300C296.686 97 294 94.3137 294 91V75Z" fill="#111310" shape-rendering="crispEdges"/>
<path d="M308.057 89.2727V76.5455H308.872V89.2727H308.057ZM310.801 80.3636C310.741 79.8598 310.5 79.4688 310.075 79.1903C309.651 78.9119 309.131 78.7727 308.514 78.7727C308.063 78.7727 307.669 78.8456 307.331 78.9915C306.996 79.1373 306.734 79.3378 306.545 79.593C306.36 79.8482 306.267 80.1383 306.267 80.4631C306.267 80.7348 306.332 80.9685 306.461 81.1641C306.594 81.3563 306.763 81.517 306.968 81.6463C307.174 81.7723 307.389 81.8767 307.614 81.9595C307.84 82.0391 308.047 82.1037 308.236 82.1534L309.27 82.4318C309.535 82.5014 309.83 82.5975 310.155 82.7202C310.483 82.8428 310.796 83.0102 311.094 83.2223C311.396 83.4311 311.645 83.6996 311.84 84.0277C312.036 84.3558 312.134 84.7585 312.134 85.2358C312.134 85.786 311.989 86.2831 311.701 86.7273C311.416 87.1714 310.998 87.5244 310.448 87.7862C309.901 88.0481 309.237 88.179 308.455 88.179C307.725 88.179 307.094 88.0613 306.56 87.826C306.03 87.5907 305.612 87.2625 305.308 86.8416C305.006 86.4207 304.835 85.9318 304.795 85.375H306.068C306.101 85.7595 306.231 86.0777 306.456 86.3295C306.685 86.5781 306.973 86.7637 307.321 86.8864C307.672 87.0057 308.05 87.0653 308.455 87.0653C308.925 87.0653 309.348 86.9891 309.722 86.8366C310.097 86.6809 310.393 86.4654 310.612 86.1903C310.831 85.9119 310.94 85.5871 310.94 85.2159C310.94 84.8778 310.846 84.6027 310.657 84.3906C310.468 84.1785 310.219 84.0062 309.911 83.8736C309.603 83.741 309.27 83.625 308.912 83.5256L307.659 83.1676C306.864 82.9389 306.234 82.6125 305.77 82.1882C305.306 81.764 305.074 81.2088 305.074 80.5227C305.074 79.9527 305.228 79.4555 305.536 79.0312C305.848 78.6037 306.265 78.2723 306.789 78.0369C307.316 77.7983 307.904 77.679 308.554 77.679C309.21 77.679 309.794 77.7966 310.304 78.032C310.814 78.264 311.219 78.5821 311.517 78.9865C311.819 79.3909 311.978 79.8499 311.994 80.3636H310.801ZM317.278 88.1392C316.861 88.1326 316.443 88.053 316.026 87.9006C315.608 87.7481 315.227 87.4912 314.882 87.13C314.537 86.7654 314.261 86.2732 314.052 85.6534C313.843 85.0303 313.739 84.2481 313.739 83.3068C313.739 82.4053 313.823 81.6065 313.992 80.9105C314.161 80.2112 314.406 79.6229 314.728 79.1456C315.049 78.665 315.437 78.3004 315.891 78.0518C316.349 77.8033 316.864 77.679 317.437 77.679C318.008 77.679 318.515 77.7933 318.959 78.022C319.406 78.2474 319.771 78.5623 320.053 78.9666C320.334 79.371 320.517 79.8366 320.599 80.3636H319.386C319.274 79.9062 319.055 79.5268 318.73 79.2251C318.405 78.9235 317.974 78.7727 317.437 78.7727C316.649 78.7727 316.027 79.1158 315.573 79.8018C315.122 80.4879 314.895 81.4508 314.892 82.6903H314.972C315.157 82.4086 315.378 82.1683 315.633 81.9695C315.891 81.7673 316.176 81.6115 316.488 81.5021C316.799 81.3928 317.129 81.3381 317.477 81.3381C318.061 81.3381 318.594 81.4839 319.078 81.7756C319.562 82.0639 319.95 82.4633 320.241 82.9737C320.533 83.4808 320.679 84.0625 320.679 84.7188C320.679 85.3485 320.538 85.9252 320.256 86.4489C319.975 86.9692 319.579 87.3835 319.068 87.6918C318.561 87.9967 317.964 88.1458 317.278 88.1392ZM317.278 87.0455C317.696 87.0455 318.071 86.9411 318.402 86.7322C318.737 86.5234 319 86.2434 319.192 85.892C319.388 85.5407 319.486 85.1496 319.486 84.7188C319.486 84.2978 319.391 83.915 319.202 83.5703C319.017 83.2223 318.76 82.9455 318.432 82.7401C318.107 82.5346 317.736 82.4318 317.318 82.4318C317.003 82.4318 316.71 82.4948 316.438 82.6207C316.166 82.7434 315.928 82.9124 315.722 83.1278C315.52 83.3433 315.361 83.5902 315.245 83.8686C315.129 84.1437 315.071 84.4337 315.071 84.7386C315.071 85.143 315.165 85.5208 315.354 85.8722C315.547 86.2235 315.808 86.5069 316.14 86.7223C316.475 86.9377 316.854 87.0455 317.278 87.0455ZM323.841 86.608L323.762 87.1449C323.706 87.5227 323.619 87.9271 323.503 88.358C323.391 88.7888 323.273 89.1948 323.15 89.576C323.028 89.9571 322.927 90.2604 322.847 90.4858H321.952C321.995 90.2737 322.052 89.9936 322.121 89.6456C322.191 89.2976 322.26 88.9081 322.33 88.4773C322.403 88.0497 322.463 87.6122 322.509 87.1648L322.569 86.608H323.841ZM328.274 77.8182V88H327.041V79.1108H326.981L324.496 80.7614V79.5085L327.041 77.8182H328.274ZM331.118 88V87.1051L334.479 83.4261C334.874 82.9953 335.198 82.6207 335.454 82.3026C335.709 81.9811 335.898 81.6795 336.02 81.3977C336.146 81.1127 336.209 80.8144 336.209 80.5028C336.209 80.1449 336.123 79.835 335.951 79.5732C335.782 79.3113 335.55 79.1091 335.255 78.9666C334.96 78.8241 334.628 78.7528 334.26 78.7528C333.869 78.7528 333.528 78.834 333.236 78.9964C332.948 79.1555 332.724 79.3793 332.565 79.6676C332.409 79.956 332.331 80.294 332.331 80.6818H331.158C331.158 80.0852 331.296 79.5616 331.571 79.1108C331.846 78.66 332.22 78.3087 332.694 78.0568C333.172 77.8049 333.707 77.679 334.3 77.679C334.897 77.679 335.425 77.8049 335.886 78.0568C336.347 78.3087 336.708 78.6484 336.97 79.076C337.232 79.5036 337.363 79.9792 337.363 80.5028C337.363 80.8774 337.295 81.2436 337.159 81.6016C337.026 81.9562 336.794 82.3523 336.463 82.7898C336.135 83.224 335.679 83.7543 335.096 84.3807L332.809 86.8267V86.9062H337.542V88H331.118ZM342.832 88.1392C342.083 88.1392 341.445 87.9354 340.918 87.5277C340.391 87.1167 339.988 86.5218 339.71 85.7429C339.431 84.9607 339.292 84.0161 339.292 82.9091C339.292 81.8087 339.431 80.8691 339.71 80.0902C339.992 79.308 340.396 78.7114 340.923 78.3004C341.453 77.8861 342.09 77.679 342.832 77.679C343.574 77.679 344.209 77.8861 344.736 78.3004C345.266 78.7114 345.671 79.308 345.949 80.0902C346.231 80.8691 346.372 81.8087 346.372 82.9091C346.372 84.0161 346.233 84.9607 345.954 85.7429C345.676 86.5218 345.273 87.1167 344.746 87.5277C344.219 87.9354 343.581 88.1392 342.832 88.1392ZM342.832 87.0455C343.574 87.0455 344.151 86.6875 344.562 85.9716C344.973 85.2557 345.179 84.2348 345.179 82.9091C345.179 82.0275 345.084 81.2768 344.895 80.657C344.71 80.0372 344.441 79.5649 344.09 79.2401C343.742 78.9152 343.322 78.7528 342.832 78.7528C342.096 78.7528 341.521 79.1158 341.107 79.8416C340.693 80.5642 340.485 81.5866 340.485 82.9091C340.485 83.7907 340.578 84.5398 340.764 85.1562C340.949 85.7727 341.216 86.2417 341.564 86.5632C341.916 86.8847 342.338 87.0455 342.832 87.0455ZM348.696 88.0795C348.451 88.0795 348.241 87.9917 348.065 87.8161C347.889 87.6404 347.802 87.4299 347.802 87.1847C347.802 86.9394 347.889 86.7289 348.065 86.5533C348.241 86.3776 348.451 86.2898 348.696 86.2898C348.942 86.2898 349.152 86.3776 349.328 86.5533C349.504 86.7289 349.591 86.9394 349.591 87.1847C349.591 87.3471 349.55 87.4962 349.467 87.6321C349.388 87.768 349.28 87.8774 349.144 87.9602C349.011 88.0398 348.862 88.0795 348.696 88.0795ZM351.593 88V87.1051L354.954 83.4261C355.348 82.9953 355.673 82.6207 355.928 82.3026C356.183 81.9811 356.372 81.6795 356.495 81.3977C356.621 81.1127 356.684 80.8144 356.684 80.5028C356.684 80.1449 356.598 79.835 356.425 79.5732C356.256 79.3113 356.024 79.1091 355.729 78.9666C355.434 78.8241 355.103 78.7528 354.735 78.7528C354.344 78.7528 354.002 78.834 353.711 78.9964C353.422 79.1555 353.199 79.3793 353.04 79.6676C352.884 79.956 352.806 80.294 352.806 80.6818H351.633C351.633 80.0852 351.77 79.5616 352.045 79.1108C352.32 78.66 352.695 78.3087 353.169 78.0568C353.646 77.8049 354.181 77.679 354.775 77.679C355.371 77.679 355.9 77.8049 356.361 78.0568C356.821 78.3087 357.183 78.6484 357.444 79.076C357.706 79.5036 357.837 79.9792 357.837 80.5028C357.837 80.8774 357.769 81.2436 357.633 81.6016C357.501 81.9562 357.269 82.3523 356.937 82.7898C356.609 83.224 356.154 83.7543 355.57 84.3807L353.283 86.8267V86.9062H358.016V88H351.593ZM363.565 77.8182V88H362.332V79.1108H362.272L359.787 80.7614V79.5085L362.332 77.8182H363.565Z" fill="white"/>
</g>
<path d="M336.414 101.586C335.633 102.367 334.367 102.367 333.586 101.586L329 97L341 97L336.414 101.586Z" fill="#111310"/>
</g>
<defs>
<filter id="filter0_d_14_12805" x="0" y="0" width="466" height="182" filterUnits="userSpaceOnUse" color-interpolation-filters="sRGB">
<feFlood flood-opacity="0" result="BackgroundImageFix"/>
<feColorMatrix in="SourceAlpha" type="matrix" values="0 0 0 0 0 0 0 0 0 0 0 0 0 0 0 0 0 0 127 0" result="hardAlpha"/>
<feOffset dy="1"/>
<feGaussianBlur stdDeviation="1"/>
<feComposite in2="hardAlpha" operator="out"/>
<feColorMatrix type="matrix" values="0 0 0 0 0.227451 0 0 0 0 0.227451 0 0 0 0 0.227451 0 0 0 0.24 0"/>
<feBlend mode="normal" in2="BackgroundImageFix" result="effect1_dropShadow_14_12805"/>
<feBlend mode="normal" in="SourceGraphic" in2="effect1_dropShadow_14_12805" result="shape"/>
</filter>
<filter id="filter1_d_14_12805" x="327" y="107" width="16" height="16" filterUnits="userSpaceOnUse" color-interpolation-filters="sRGB">
<feFlood flood-opacity="0" result="BackgroundImageFix"/>
<feColorMatrix in="SourceAlpha" type="matrix" values="0 0 0 0 0 0 0 0 0 0 0 0 0 0 0 0 0 0 127 0" result="hardAlpha"/>
<feOffset dy="2"/>
<feGaussianBlur stdDeviation="2"/>
<feColorMatrix type="matrix" values="0 0 0 0 0.105882 0 0 0 0 0.109804 0 0 0 0 0.113725 0 0 0 0.04 0"/>
<feBlend mode="normal" in2="BackgroundImageFix" result="effect1_dropShadow_14_12805"/>
<feBlend mode="normal" in="SourceGraphic" in2="effect1_dropShadow_14_12805" result="shape"/>
</filter>
<filter id="filter2_d_14_12805" x="330.991" y="112.012" width="19.1461" height="20.0588" filterUnits="userSpaceOnUse" color-interpolation-filters="sRGB">
<feFlood flood-opacity="0" result="BackgroundImageFix"/>
<feColorMatrix in="SourceAlpha" type="matrix" values="0 0 0 0 0 0 0 0 0 0 0 0 0 0 0 0 0 0 127 0" result="hardAlpha"/>
<feOffset dy="1"/>
<feGaussianBlur stdDeviation="1"/>
<feColorMatrix type="matrix" values="0 0 0 0 0.211765 0 0 0 0 0.219608 0 0 0 0 0.227451 0 0 0 0.48 0"/>
<feBlend mode="normal" in2="BackgroundImageFix" result="effect1_dropShadow_14_12805"/>
<feBlend mode="normal" in="SourceGraphic" in2="effect1_dropShadow_14_12805" result="shape"/>
</filter>
<filter id="filter3_d_14_12805" x="270" y="57" width="130" height="76" filterUnits="userSpaceOnUse" color-interpolation-filters="sRGB">
<feFlood flood-opacity="0" result="BackgroundImageFix"/>
<feColorMatrix in="SourceAlpha" type="matrix" values="0 0 0 0 0 0 0 0 0 0 0 0 0 0 0 0 0 0 127 0" result="hardAlpha"/>
<feOffset dy="12"/>
<feGaussianBlur stdDeviation="12"/>
<feComposite in2="hardAlpha" operator="out"/>
<feColorMatrix type="matrix" values="0 0 0 0 0.227451 0 0 0 0 0.227451 0 0 0 0 0.227451 0 0 0 0.12 0"/>
<feBlend mode="normal" in2="BackgroundImageFix" result="effect1_dropShadow_14_12805"/>
<feBlend mode="normal" in="SourceGraphic" in2="effect1_dropShadow_14_12805" result="shape"/>
</filter>
<linearGradient id="paint0_linear_14_12805" x1="90" y1="88.9999" x2="437" y2="88.9999" gradientUnits="userSpaceOnUse">
<stop stop-color="#A7E97F"/>
<stop offset="1" stop-color="#A7E97F"/>
</linearGradient>
</defs>
</svg>
