<svg width="199" height="102" viewBox="0 0 199 102" fill="none" xmlns="http://www.w3.org/2000/svg">
<g filter="url(#filter0_d_184_7814)">
<g clip-path="url(#clip0_184_7814)">
<rect x="2" y="1" width="195.219" height="99" rx="8.89888" fill="#1A1D1A"/>
<path opacity="0.5" d="M211.107 -71.6182C213.264 -75.2183 217.153 -77.4216 221.35 -77.4216H310.154C314.793 -77.4216 317.66 -72.3625 315.276 -68.3832L254.522 33.0165C252.365 36.6166 248.476 38.8199 244.28 38.8199H155.475C150.836 38.8199 147.969 33.7608 150.354 29.7815L211.107 -71.6182Z" fill="#282924"/>
<g filter="url(#filter1_i_184_7814)">
<rect x="13.1235" y="12.1238" width="17.7978" height="17.7978" rx="8.89888" fill="#375DFB"/>
<rect x="13.1235" y="12.1238" width="17.7978" height="17.7978" rx="8.89888" fill="white" fill-opacity="0.1"/>
<path d="M22.4902 25.4482L22.4902 25.4482C22.4837 26.1181 22.3907 26.7125 22.2529 27.1296C22.1834 27.3397 22.1076 27.4894 22.0373 27.5804C21.9885 27.6437 21.9575 27.6605 21.9469 27.6647C21.9364 27.6603 21.9058 27.6429 21.8582 27.5786C21.7897 27.4862 21.7168 27.335 21.6514 27.1236C21.5216 26.7039 21.4402 26.1077 21.4467 25.4378L21.4467 25.4378C21.4532 24.7678 21.5462 24.1734 21.684 23.7563C21.7535 23.5462 21.8293 23.3966 21.8996 23.3055C21.9484 23.2423 21.9793 23.2254 21.9899 23.2213C22.0005 23.2257 22.0311 23.2431 22.0787 23.3073C22.1472 23.3998 22.2201 23.5509 22.2855 23.7623C22.4153 24.182 22.4967 24.7782 22.4902 25.4482Z" fill="url(#paint0_linear_184_7814)" fill-opacity="0.8" stroke="url(#paint1_linear_184_7814)" stroke-width="0.55618"/>
<path d="M19.1021 24.403L19.1021 24.403C19.4667 23.8431 19.8635 23.394 20.2028 23.1186C20.3737 22.9799 20.5174 22.8956 20.6248 22.8575C20.6999 22.8308 20.7345 22.8338 20.7452 22.8361C20.7516 22.845 20.7691 22.8764 20.7749 22.9594C20.783 23.0749 20.7633 23.242 20.7049 23.4554C20.589 23.8792 20.3379 24.4251 19.9733 24.9849C19.6087 25.5449 19.2119 25.994 18.8726 26.2694C18.7016 26.4081 18.558 26.4924 18.4506 26.5305C18.3755 26.5571 18.3409 26.5541 18.3302 26.5519C18.3237 26.543 18.3062 26.5115 18.3004 26.4285C18.2924 26.3131 18.3121 26.146 18.3705 25.9325C18.4864 25.5087 18.7375 24.9629 19.1021 24.403Z" fill="url(#paint2_linear_184_7814)" fill-opacity="0.8" stroke="url(#paint3_linear_184_7814)" stroke-width="0.55618"/>
<path d="M18.1024 23.2266L18.1024 23.2266C17.4957 23.4987 16.9215 23.66 16.4887 23.7067C16.2708 23.7302 16.1049 23.7228 15.9943 23.6963C15.9137 23.677 15.8869 23.6546 15.8799 23.6472C15.879 23.6371 15.88 23.6011 15.9209 23.5257C15.9759 23.4245 16.0818 23.2949 16.2452 23.1473C16.5696 22.8543 17.0732 22.5323 17.6799 22.2602L17.6799 22.2602C18.2866 21.988 18.8608 21.8267 19.2936 21.78C19.5115 21.7565 19.6774 21.7639 19.788 21.7904C19.8686 21.8097 19.8954 21.8321 19.9024 21.8395C19.9033 21.8496 19.9023 21.8856 19.8614 21.961C19.8064 22.0623 19.7005 22.1918 19.5371 22.3394C19.2127 22.6324 18.7091 22.9545 18.1024 23.2266Z" fill="url(#paint4_linear_184_7814)" fill-opacity="0.8" stroke="url(#paint5_linear_184_7814)" stroke-width="0.55618"/>
<path d="M17.4765 20.7274L17.4339 21.0022L17.4765 20.7274C16.8204 20.6256 16.2507 20.4482 15.8616 20.2515C15.6655 20.1524 15.5298 20.0557 15.4505 19.9727C15.3914 19.9108 15.3813 19.8765 15.3796 19.8667C15.3842 19.8579 15.404 19.8286 15.478 19.788C15.5781 19.733 15.7362 19.6819 15.9527 19.6469C16.3823 19.5773 16.9784 19.5808 17.6346 19.6827C18.2908 19.7845 18.8604 19.9619 19.2496 20.1586C19.4456 20.2577 19.5814 20.3544 19.6606 20.4374C19.7198 20.4993 19.7299 20.5337 19.7315 20.5434C19.727 20.5522 19.7071 20.5815 19.6331 20.6221C19.5331 20.6771 19.3749 20.7282 19.1585 20.7632C18.7288 20.8328 18.1327 20.8293 17.4765 20.7274Z" fill="url(#paint6_linear_184_7814)" fill-opacity="0.8" stroke="url(#paint7_linear_184_7814)" stroke-width="0.55618"/>
<path d="M18.2901 18.2779L18.1051 18.4855L18.2901 18.2779C17.7925 17.8345 17.408 17.3745 17.1858 16.9965C17.0739 16.8061 17.0113 16.6502 16.989 16.5368C16.9727 16.4536 16.982 16.4187 16.9859 16.4089C16.9952 16.4039 17.0276 16.3913 17.1083 16.3972C17.2217 16.4055 17.3821 16.4487 17.5831 16.5372C17.9821 16.7129 18.4818 17.0409 18.9795 17.4844C19.4771 17.9279 19.8616 18.3878 20.0838 18.7658C20.1957 18.9562 20.2582 19.1121 20.2805 19.2256C20.2969 19.3087 20.2876 19.3436 20.2837 19.3534C20.2744 19.3584 20.242 19.371 20.1613 19.3651C20.0479 19.3568 19.8875 19.3136 19.6865 19.2251C19.2875 19.0494 18.7878 18.7214 18.2901 18.2779Z" fill="url(#paint8_linear_184_7814)" fill-opacity="0.8" stroke="url(#paint9_linear_184_7814)" stroke-width="0.55618"/>
<path d="M21.2877 16.3732C21.4686 17.0178 21.5455 17.6146 21.5297 18.054C21.5217 18.2754 21.4908 18.4406 21.4487 18.5482C21.4191 18.6239 21.3936 18.6488 21.3847 18.6557C21.3734 18.6545 21.3395 18.6465 21.2762 18.5987C21.1849 18.5296 21.0729 18.4055 20.9511 18.2213C20.7095 17.8556 20.4648 17.3068 20.2839 16.6622C20.103 16.0175 20.0262 15.4207 20.0419 14.9813C20.0499 14.76 20.0809 14.5947 20.1229 14.4871C20.1525 14.4114 20.178 14.3865 20.187 14.3796C20.1982 14.3808 20.2321 14.3888 20.2954 14.4366C20.3867 14.5057 20.4988 14.6298 20.6205 14.8141C20.8622 15.1798 21.1068 15.7286 21.2877 16.3732Z" fill="url(#paint10_linear_184_7814)" fill-opacity="0.8" stroke="url(#paint11_linear_184_7814)" stroke-width="0.55618"/>
<path d="M23.8236 16.6979L23.8236 16.6979C23.6301 17.3388 23.3748 17.8826 23.126 18.2434C23.0007 18.4252 22.8863 18.547 22.7936 18.6143C22.7294 18.6608 22.6953 18.6681 22.6841 18.6691C22.6753 18.6621 22.6503 18.6367 22.6221 18.5603C22.5822 18.4519 22.5545 18.286 22.5508 18.0645C22.5436 17.6249 22.6321 17.0298 22.8256 16.3889C23.0191 15.748 23.2744 15.2042 23.5232 14.8434C23.6485 14.6616 23.763 14.5397 23.8556 14.4725C23.9198 14.4259 23.9539 14.4186 23.9651 14.4177C23.9739 14.4247 23.9989 14.4501 24.0271 14.5265C24.067 14.6349 24.0948 14.8008 24.0984 15.0222C24.1056 15.4619 24.0171 16.057 23.8236 16.6979Z" fill="url(#paint12_linear_184_7814)" fill-opacity="0.8" stroke="url(#paint13_linear_184_7814)" stroke-width="0.55618"/>
<path opacity="0.9" d="M25.7871 18.3527L25.7871 18.3527C25.281 18.7863 24.7749 19.1044 24.3727 19.2722C24.17 19.3568 24.0088 19.3967 23.8952 19.4028C23.8144 19.4071 23.7822 19.3939 23.773 19.3887C23.7693 19.3788 23.7607 19.3438 23.7786 19.2609C23.8031 19.1479 23.8687 18.9933 23.9843 18.8051C24.2138 18.4316 24.607 17.9793 25.1132 17.5458C25.6193 17.1122 26.1253 16.7941 26.5276 16.6263C26.7303 16.5417 26.8915 16.5017 27.005 16.4957C27.0859 16.4914 27.1181 16.5046 27.1272 16.5098C27.1309 16.5196 27.1396 16.5547 27.1216 16.6376C27.0972 16.7506 27.0316 16.9052 26.916 17.0933C26.6865 17.4669 26.2932 17.9192 25.7871 18.3527Z" fill="url(#paint14_linear_184_7814)" fill-opacity="0.8" stroke="url(#paint15_linear_184_7814)" stroke-width="0.55618"/>
<path opacity="0.8" d="M28.6655 19.9961C28.6663 19.9979 28.6666 19.9988 28.6666 19.9988C28.6666 19.9988 28.6663 19.9979 28.666 19.9959L28.6658 19.9931C28.6658 19.9931 28.6658 19.9941 28.6655 19.9961ZM28.6655 19.9961C28.6611 19.9872 28.6418 19.9575 28.5686 19.9153C28.4696 19.8584 28.3125 19.8042 28.0968 19.7648C27.6685 19.6867 27.0725 19.6784 26.4144 19.7672C25.7564 19.8559 25.1834 20.0219 24.7905 20.2108C24.5926 20.306 24.4549 20.4001 24.3741 20.4814C24.3138 20.5421 24.303 20.5762 24.3012 20.5859C24.3055 20.5948 24.3248 20.6246 24.3981 20.6667C24.497 20.7236 24.6542 20.7779 24.8699 20.8172C25.2981 20.8953 25.8941 20.9036 26.5522 20.8149C27.2103 20.7261 27.7832 20.5601 28.1762 20.3712C28.3741 20.276 28.5117 20.1819 28.5925 20.1006C28.6529 20.0399 28.6636 20.0058 28.6655 19.9961Z" fill="url(#paint16_linear_184_7814)" fill-opacity="0.8" stroke="url(#paint17_linear_184_7814)" stroke-width="0.55618"/>
<path d="M25.8742 23.3037C25.273 23.0196 24.7758 22.6876 24.4572 22.3881C24.2967 22.2373 24.1933 22.1057 24.1403 22.0033C24.1009 21.9272 24.1006 21.8912 24.1017 21.8811C24.1088 21.8738 24.1361 21.852 24.2169 21.8343C24.328 21.8101 24.494 21.8059 24.7115 21.8338C25.1432 21.889 25.7142 22.0618 26.3155 22.3459L26.3155 22.3459C26.9167 22.63 27.4139 22.962 27.7325 23.2615C27.893 23.4123 27.9964 23.5439 28.0494 23.6463C28.0888 23.7224 28.0891 23.7584 28.088 23.7685C28.0809 23.7758 28.0536 23.7976 27.9728 23.8153C27.8616 23.8395 27.6957 23.8437 27.4782 23.8158C27.0465 23.7606 26.4755 23.5878 25.8742 23.3037ZM25.8742 23.3037L25.7565 23.5527L25.8742 23.3037Z" fill="url(#paint18_linear_184_7814)" fill-opacity="0.8" stroke="url(#paint19_linear_184_7814)" stroke-width="0.55618"/>
<path d="M24.8525 24.4628C25.2061 25.0298 25.4465 25.5805 25.5541 26.0065C25.6083 26.2211 25.6247 26.3885 25.6144 26.5038C25.607 26.5866 25.5889 26.6177 25.5823 26.6264C25.5715 26.6285 25.5369 26.6308 25.4624 26.6027C25.3557 26.5624 25.2137 26.4753 25.0455 26.3332C24.7117 26.0511 24.3237 25.5942 23.9701 25.0271C23.6165 24.4601 23.3762 23.9094 23.2686 23.4833C23.2144 23.2687 23.1979 23.1013 23.2082 22.9861C23.2157 22.9033 23.2337 22.8722 23.2403 22.8634C23.2511 22.8614 23.2858 22.8591 23.3603 22.8872C23.4669 22.9274 23.6089 23.0146 23.7771 23.1567C24.111 23.4388 24.4989 23.8957 24.8525 24.4628Z" fill="url(#paint20_linear_184_7814)" fill-opacity="0.8" stroke="url(#paint21_linear_184_7814)" stroke-width="0.55618"/>
</g>
<path d="M44.5493 15.3611C45.8466 16.9624 46.5531 18.9615 46.55 21.0224C46.55 23.1673 45.8007 25.1371 44.5493 26.6838L43.7704 26.0551C44.9237 24.6316 45.5517 22.8545 45.5489 21.0224C45.5489 19.1158 44.8832 17.3653 43.7704 15.9898L44.5493 15.3611ZM42.6021 16.9333C43.5392 18.0899 44.0495 19.5339 44.0472 21.0224C44.0472 22.5712 43.5061 23.9938 42.6026 25.1115L41.8237 24.4823C42.6165 23.5036 43.0481 22.2819 43.0461 21.0224C43.0461 19.712 42.5881 18.5081 41.8237 17.5626L42.6026 16.9333L42.6021 16.9333ZM40.6549 18.5061C41.2316 19.2178 41.5457 20.1064 41.5444 21.0224C41.5444 21.9755 41.2115 22.851 40.6554 23.5388L39.8765 22.9096C40.3089 22.3758 40.5444 21.7094 40.5433 21.0224C40.5433 20.3076 40.2935 19.6509 39.8765 19.1353L40.6554 18.5061L40.6549 18.5061ZM38.7077 20.0789C38.9241 20.3457 39.042 20.6789 39.0416 21.0224C39.0416 21.3798 38.9165 21.7082 38.7082 21.966L37.5399 21.0224L38.7082 20.0789L38.7077 20.0789Z" fill="#868C98"/>
<circle cx="174.082" cy="21.0227" r="4.67191" fill="#E80B26"/>
<circle cx="180.311" cy="21.0227" r="4.67191" fill="#F59D31"/>
<path d="M177.197 24.5053C178.152 23.6498 178.754 22.4067 178.754 21.023C178.754 19.6394 178.152 18.3962 177.197 17.5408C176.241 18.3962 175.639 19.6394 175.639 21.023C175.639 22.4067 176.241 23.6498 177.197 24.5053Z" fill="#FC6020"/>
<path opacity="0.5" d="M232.242 -37.691C234.399 -41.2911 238.288 -43.4944 242.484 -43.4944H331.289C335.928 -43.4944 338.795 -38.4352 336.41 -34.4559L275.657 66.9438C273.5 70.5439 269.611 72.7472 265.414 72.7472H176.61C171.971 72.7472 169.104 67.688 171.488 63.7087L232.242 -37.691Z" fill="#868C98"/>
<path d="M13.2637 61.3933L14.5985 56.7214H15.8666L17.1948 61.3933H16.4539L16.1469 60.2921H14.3182L14.0112 61.3933H13.2637ZM14.4984 59.6247H15.9667L15.286 57.1686H15.1792L14.4984 59.6247ZM19.3761 61.4867C19.0602 61.4867 18.7732 61.42 18.5152 61.2865C18.2615 61.153 18.0591 60.9595 17.9078 60.7059C17.761 60.4523 17.6876 60.1475 17.6876 59.7915V59.7047C17.6876 59.3488 17.761 59.0462 17.9078 58.7971C18.0591 58.5434 18.2615 58.3499 18.5152 58.2164C18.7732 58.0785 19.0602 58.0095 19.3761 58.0095C19.692 58.0095 19.9612 58.0674 20.1837 58.183C20.4062 58.2987 20.5841 58.4522 20.7176 58.6436C20.8556 58.8349 20.9446 59.0462 20.9846 59.2776L20.3172 59.4178C20.2949 59.2709 20.2482 59.1374 20.177 59.0173C20.1058 58.8972 20.0057 58.8015 19.8767 58.7303C19.7477 58.6591 19.5852 58.6235 19.3895 58.6235C19.1981 58.6235 19.0246 58.668 18.8689 58.757C18.7176 58.8416 18.5975 58.9661 18.5085 59.1308C18.4195 59.291 18.375 59.4867 18.375 59.7181V59.7782C18.375 60.0095 18.4195 60.2075 18.5085 60.3722C18.5975 60.5368 18.7176 60.6614 18.8689 60.7459C19.0246 60.8305 19.1981 60.8727 19.3895 60.8727C19.6787 60.8727 19.8989 60.7993 20.0502 60.6525C20.2015 60.5012 20.2972 60.3099 20.3372 60.0785L21.0046 60.232C20.9512 60.4589 20.8556 60.6681 20.7176 60.8594C20.5841 61.0507 20.4062 61.2042 20.1837 61.3199C19.9612 61.4311 19.692 61.4867 19.3761 61.4867ZM22.9084 61.3933C22.7081 61.3933 22.548 61.3332 22.4278 61.2131C22.3121 61.093 22.2543 60.9328 22.2543 60.7326V58.6836H21.3466V58.103H22.2543V57.0151H22.9417V58.103H23.9228V58.6836H22.9417V60.6124C22.9417 60.7459 23.004 60.8127 23.1286 60.8127H23.8161V61.3933H22.9084ZM24.7305 61.3933V58.103H25.4179V61.3933H24.7305ZM25.0775 57.6558C24.944 57.6558 24.8306 57.6135 24.7371 57.529C24.6482 57.44 24.6037 57.3265 24.6037 57.1886C24.6037 57.0507 24.6482 56.9394 24.7371 56.8549C24.8306 56.7659 24.944 56.7214 25.0775 56.7214C25.2155 56.7214 25.3289 56.7659 25.4179 56.8549C25.5069 56.9394 25.5514 57.0507 25.5514 57.1886C25.5514 57.3265 25.5069 57.44 25.4179 57.529C25.3289 57.6135 25.2155 57.6558 25.0775 57.6558ZM27.199 61.3933L26.0911 58.103H26.8185L27.6929 60.8861H27.7996L28.674 58.103H29.4014L28.2935 61.3933H27.199ZM31.4595 61.4867C31.1258 61.4867 30.8344 61.4178 30.5852 61.2798C30.336 61.1375 30.1403 60.9395 29.9979 60.6858C29.86 60.4278 29.791 60.1297 29.791 59.7915V59.7114C29.791 59.3688 29.86 59.0707 29.9979 58.8171C30.1358 58.559 30.3272 58.361 30.5719 58.2231C30.821 58.0807 31.108 58.0095 31.4328 58.0095C31.7487 58.0095 32.0246 58.0807 32.2604 58.2231C32.5007 58.361 32.6876 58.5546 32.8211 58.8037C32.9545 59.0529 33.0213 59.3443 33.0213 59.6781V59.9383H30.4918C30.5007 60.2276 30.5963 60.4589 30.7788 60.6325C30.9656 60.8015 31.197 60.8861 31.4729 60.8861C31.7309 60.8861 31.9245 60.8282 32.0535 60.7125C32.187 60.5969 32.2894 60.4634 32.3605 60.3121L32.9278 60.6058C32.8656 60.7303 32.7743 60.8616 32.6542 60.9995C32.5385 61.1375 32.385 61.2532 32.1937 61.3466C32.0024 61.44 31.7576 61.4867 31.4595 61.4867ZM30.4985 59.4111H32.3205C32.3027 59.1619 32.2137 58.9684 32.0535 58.8304C31.8934 58.6881 31.6842 58.6169 31.4262 58.6169C31.1681 58.6169 30.9567 58.6881 30.7921 58.8304C30.6319 58.9684 30.534 59.1619 30.4985 59.4111Z" fill="#344054"/>
<path d="M18.6942 84.9906C17.7925 84.9906 16.9856 84.8304 16.2737 84.5101C15.5618 84.1897 14.9982 83.7092 14.583 83.0685C14.1795 82.4159 13.9778 81.6031 13.9778 80.6302V80.2564H15.455V80.6302C15.455 81.6624 15.7576 82.4337 16.3627 82.9439C16.9679 83.4422 17.745 83.6914 18.6942 83.6914C19.6672 83.6914 20.4087 83.4719 20.919 83.0329C21.4292 82.5939 21.6843 82.0421 21.6843 81.3777C21.6843 80.9149 21.5715 80.5471 21.3461 80.2742C21.1207 80.0013 20.8003 79.7818 20.385 79.6157C19.9697 79.4377 19.4833 79.2835 18.9256 79.153L17.9823 78.9216C17.2585 78.7317 16.6178 78.5004 16.0602 78.2275C15.5025 77.9546 15.0635 77.5986 14.7431 77.1596C14.4346 76.7087 14.2804 76.1333 14.2804 75.4332C14.2804 74.7332 14.4584 74.1281 14.8143 73.6179C15.1703 73.1077 15.6627 72.7161 16.2915 72.4432C16.9204 72.1703 17.656 72.0339 18.4985 72.0339C19.3409 72.0339 20.0943 72.1822 20.7588 72.4788C21.4232 72.7636 21.9512 73.1907 22.3428 73.7602C22.7343 74.3179 22.9301 75.0239 22.9301 75.8782V76.6257H21.4529V75.8782C21.4529 75.273 21.3224 74.7866 21.0613 74.4188C20.8122 74.0509 20.4621 73.778 20.0113 73.6001C19.5723 73.4221 19.068 73.3331 18.4985 73.3331C17.6798 73.3331 17.0212 73.517 16.5229 73.8848C16.0246 74.2408 15.7754 74.751 15.7754 75.4154C15.7754 75.8544 15.8763 76.2104 16.078 76.4833C16.2915 76.7562 16.5941 76.9816 16.9856 77.1596C17.3772 77.3257 17.8459 77.474 18.3917 77.6046L19.335 77.8359C20.0469 77.9902 20.6935 78.2037 21.2749 78.4766C21.8563 78.7377 22.3131 79.0996 22.6453 79.5623C22.9894 80.0132 23.1615 80.6064 23.1615 81.3421C23.1615 82.0777 22.9776 82.7184 22.6097 83.2642C22.2419 83.81 21.7199 84.2372 21.0435 84.5457C20.3791 84.8423 19.596 84.9906 18.6942 84.9906ZM18.0179 86.806V70.2185H19.3883V86.806H18.0179ZM28.6126 84.7415V73.2441H28.3456L25.9251 77.6757H24.3589L27.3311 72.283H30.0542V84.7415H28.6126ZM36.9948 84.9906C36.1405 84.9906 35.3752 84.8245 34.6989 84.4923C34.0344 84.1482 33.5064 83.6617 33.1149 83.0329C32.7352 82.404 32.5453 81.6565 32.5453 80.7904V76.4477C32.5453 75.5104 32.7292 74.7154 33.0971 74.0628C33.4649 73.4102 33.981 72.9119 34.6455 72.5678C35.3218 72.2118 36.1227 72.0339 37.0482 72.0339C37.9618 72.0339 38.739 72.2 39.3797 72.5322C40.0323 72.8526 40.5247 73.2975 40.8569 73.867C41.201 74.4247 41.373 75.0713 41.373 75.807H39.9136C39.9136 75.0713 39.6763 74.4781 39.2017 74.0272C38.7271 73.5645 38.0092 73.3331 37.0482 73.3331C36.0752 73.3331 35.3218 73.6001 34.7879 74.134C34.2539 74.6561 33.987 75.3798 33.987 76.3053V78.0317H34.2361C34.4497 77.6757 34.8056 77.3495 35.304 77.0528C35.8023 76.7443 36.4964 76.5901 37.3863 76.5901C38.1338 76.5901 38.8161 76.7562 39.4331 77.0884C40.0501 77.4206 40.5425 77.8893 40.9103 78.4944C41.2781 79.0996 41.462 79.8174 41.462 80.648V80.8615C41.462 81.704 41.2662 82.4337 40.8747 83.0507C40.495 83.6677 39.967 84.1482 39.2907 84.4923C38.6144 84.8245 37.8491 84.9906 36.9948 84.9906ZM36.9948 83.6914C37.8965 83.6914 38.6262 83.4363 39.1839 82.9261C39.7416 82.4159 40.0204 81.7218 40.0204 80.8437V80.7014C40.0204 80.1081 39.8899 79.5979 39.6288 79.1708C39.3797 78.7436 39.0296 78.4114 38.5788 78.1741C38.1279 77.9249 37.5999 77.8003 36.9948 77.8003C36.4015 77.8003 35.8794 77.9249 35.4286 78.1741C34.9777 78.4114 34.6217 78.7436 34.3607 79.1708C34.1115 79.5979 33.987 80.1081 33.987 80.7014V80.8437C33.987 81.7218 34.2658 82.4159 34.8234 82.9261C35.3811 83.4363 36.1049 83.6914 36.9948 83.6914ZM43.6926 86.9662V86.0763H44.2087C44.6358 86.0763 44.8494 85.8627 44.8494 85.4356V84.866H44.6003C44.2562 84.866 43.9655 84.7593 43.7282 84.5457C43.5027 84.3321 43.39 84.0651 43.39 83.7448C43.39 83.4007 43.5027 83.1219 43.7282 82.9083C43.9655 82.6947 44.2562 82.5879 44.6003 82.5879C44.9443 82.5879 45.2291 82.7006 45.4545 82.9261C45.68 83.1515 45.7927 83.4363 45.7927 83.7804V85.4356C45.7927 86.456 45.2825 86.9662 44.2621 86.9662H43.6926ZM52.2417 84.9906C50.8298 84.9906 49.7026 84.5753 48.8602 83.7448C48.0296 82.9024 47.6143 81.6446 47.6143 79.9717V77.0528C47.6143 75.3917 48.0296 74.1399 48.8602 73.2975C49.7026 72.4551 50.8298 72.0339 52.2417 72.0339C53.6656 72.0339 54.7928 72.4551 55.6233 73.2975C56.4657 74.1399 56.887 75.3917 56.887 77.0528V79.9717C56.887 81.6446 56.4657 82.9024 55.6233 83.7448C54.7928 84.5753 53.6656 84.9906 52.2417 84.9906ZM52.2417 83.6914C53.3096 83.6914 54.1105 83.371 54.6444 82.7303C55.1784 82.0896 55.4453 81.1938 55.4453 80.0428V76.9638C55.4453 75.8129 55.1724 74.923 54.6266 74.2942C54.0808 73.6535 53.2859 73.3331 52.2417 73.3331C51.1976 73.3331 50.4026 73.6535 49.8568 74.2942C49.3229 74.9349 49.056 75.8248 49.056 76.9638V80.0428C49.056 81.2056 49.3229 82.1074 49.8568 82.7481C50.3908 83.377 51.1857 83.6914 52.2417 83.6914ZM63.3231 84.9906C62.4095 84.9906 61.6204 84.8186 60.956 84.4745C60.2915 84.1185 59.7754 83.6321 59.4076 83.0151C59.0398 82.3862 58.8558 81.6624 58.8558 80.8437V80.6302H60.2975V80.7904C60.2975 81.7277 60.5704 82.4455 61.1162 82.9439C61.662 83.4422 62.3857 83.6914 63.2875 83.6914C64.2367 83.6914 64.9783 83.4244 65.5122 82.8905C66.0461 82.3566 66.3131 81.6268 66.3131 80.7014V80.5412C66.3131 79.6513 66.0521 78.9453 65.53 78.4233C65.0198 77.8893 64.3553 77.6224 63.5366 77.6224C63.062 77.6224 62.6705 77.6995 62.362 77.8537C62.0535 77.9961 61.8103 78.18 61.6323 78.4055C61.4543 78.619 61.306 78.8267 61.1873 79.0284H59.2296V72.283H67.4166V73.5823H60.6712V77.8893H60.9204C61.0509 77.652 61.2289 77.4206 61.4543 77.1952C61.6916 76.9698 62.006 76.7799 62.3976 76.6257C62.7891 76.4714 63.2756 76.3943 63.857 76.3943C64.5808 76.3943 65.2334 76.5604 65.8148 76.8926C66.408 77.2249 66.8767 77.6995 67.2208 78.3165C67.5767 78.9335 67.7547 79.6691 67.7547 80.5234V80.7192C67.7547 81.5616 67.5767 82.3032 67.2208 82.9439C66.8648 83.5846 66.3546 84.0889 65.6902 84.4567C65.0257 84.8126 64.2367 84.9906 63.3231 84.9906ZM74.1376 84.9906C73.1765 84.9906 72.34 84.8482 71.6281 84.5635C70.928 84.2668 70.3822 83.8575 69.9907 83.3354C69.611 82.8015 69.4212 82.1786 69.4212 81.4667V81.2709C69.4212 80.6539 69.5517 80.1437 69.8127 79.7403C70.0738 79.3369 70.3882 79.0284 70.756 78.8148C71.1357 78.5894 71.4857 78.447 71.8061 78.3877V78.1563C71.4857 78.0614 71.1535 77.9071 70.8094 77.6935C70.4772 77.48 70.1983 77.1893 69.9729 76.8215C69.7593 76.4536 69.6525 76.0028 69.6525 75.4688V75.273C69.6525 74.5967 69.8424 74.0213 70.2221 73.5467C70.6136 73.0602 71.1476 72.6864 71.8239 72.4254C72.5002 72.1644 73.2714 72.0339 74.1376 72.0339C75.0156 72.0339 75.7868 72.1644 76.4513 72.4254C77.1276 72.6864 77.6556 73.0602 78.0353 73.5467C78.4268 74.0213 78.6226 74.5967 78.6226 75.273V75.4688C78.6226 76.0028 78.5158 76.4536 78.3023 76.8215C78.0887 77.1893 77.8158 77.48 77.4836 77.6935C77.1513 77.9071 76.8191 78.0614 76.4869 78.1563V78.3877C76.8191 78.447 77.1691 78.5894 77.5369 78.8148C77.9048 79.0284 78.2133 79.3369 78.4624 79.7403C78.7235 80.1437 78.854 80.6539 78.854 81.2709V81.4667C78.854 82.1786 78.6641 82.8015 78.2845 83.3354C77.9048 83.8575 77.359 84.2668 76.6471 84.5635C75.947 84.8482 75.1105 84.9906 74.1376 84.9906ZM74.1376 83.6914C75.1461 83.6914 75.9411 83.4956 76.5225 83.1041C77.1157 82.7125 77.4124 82.143 77.4124 81.3955V81.2531C77.4124 80.5056 77.1217 79.9361 76.5403 79.5445C75.9589 79.153 75.158 78.9572 74.1376 78.9572C73.129 78.9572 72.3341 79.153 71.7527 79.5445C71.1713 79.9361 70.8806 80.5056 70.8806 81.2531V81.3955C70.8806 82.143 71.1713 82.7125 71.7527 83.1041C72.3459 83.4956 73.1409 83.6914 74.1376 83.6914ZM74.1376 77.6579C75.0868 77.6579 75.8284 77.48 76.3623 77.124C76.9081 76.7562 77.181 76.2401 77.181 75.5756V75.4332C77.181 74.7569 76.9081 74.2408 76.3623 73.8848C75.8165 73.517 75.0749 73.3331 74.1376 73.3331C73.2002 73.3331 72.4587 73.517 71.9129 73.8848C71.3671 74.2408 71.0942 74.7569 71.0942 75.4332V75.5756C71.0942 76.2401 71.3671 76.7562 71.9129 77.124C72.4587 77.48 73.2002 77.6579 74.1376 77.6579Z" fill="#E2E4E9"/>
<path d="M81.9338 84.9906C81.5897 84.9906 81.299 84.8779 81.0617 84.6525C80.8363 84.427 80.7236 84.1363 80.7236 83.7804C80.7236 83.4244 80.8363 83.1337 81.0617 82.9083C81.299 82.6828 81.5897 82.5701 81.9338 82.5701C82.2898 82.5701 82.5805 82.6828 82.8059 82.9083C83.0314 83.1337 83.1441 83.4244 83.1441 83.7804C83.1441 84.1363 83.0314 84.427 82.8059 84.6525C82.5805 84.8779 82.2898 84.9906 81.9338 84.9906ZM89.497 84.9906C88.5834 84.9906 87.8003 84.8304 87.1477 84.5101C86.507 84.1779 86.0205 83.727 85.6883 83.1575C85.3561 82.5879 85.19 81.9413 85.19 81.2175H86.6316C86.6316 81.9531 86.8748 82.5523 87.3613 83.0151C87.8478 83.4659 88.5597 83.6914 89.497 83.6914C90.4818 83.6914 91.2353 83.4304 91.7574 82.9083C92.2913 82.3744 92.5582 81.6446 92.5582 80.7192V78.9928H92.3269C92.1014 79.3487 91.7396 79.681 91.2412 79.9895C90.7547 80.2861 90.0666 80.4344 89.1767 80.4344C88.4292 80.4344 87.741 80.2683 87.1121 79.9361C86.4951 79.6038 86.0027 79.1352 85.6349 78.53C85.2671 77.9249 85.0832 77.2071 85.0832 76.3765V76.1629C85.0832 75.3086 85.279 74.5789 85.6705 73.9738C86.0621 73.3568 86.5901 72.8822 87.2545 72.55C87.9308 72.2059 88.6961 72.0339 89.5504 72.0339C90.4166 72.0339 91.1819 72.2059 91.8463 72.55C92.5227 72.8822 93.0507 73.3628 93.4303 73.9916C93.81 74.6086 93.9999 75.3561 93.9999 76.2341V80.5768C93.9999 81.5023 93.816 82.2972 93.4481 82.9617C93.0922 83.6143 92.576 84.1185 91.8997 84.4745C91.2234 84.8186 90.4225 84.9906 89.497 84.9906ZM89.5504 79.2242C90.1437 79.2242 90.6658 79.1055 91.1166 78.8682C91.5675 78.619 91.9175 78.2809 92.1667 77.8537C92.4277 77.4147 92.5582 76.9045 92.5582 76.3231V76.1807C92.5582 75.2908 92.2794 74.5967 91.7218 74.0984C91.176 73.5882 90.4522 73.3331 89.5504 73.3331C88.6487 73.3331 87.919 73.5882 87.3613 74.0984C86.8036 74.5967 86.5248 75.2908 86.5248 76.1807V76.3231C86.5248 76.9045 86.6494 77.4147 86.8986 77.8537C87.1596 78.2809 87.5156 78.619 87.9664 78.8682C88.4292 79.1055 88.9572 79.2242 89.5504 79.2242ZM102.139 84.7415V82.1964H95.6427V80.4878L100.875 72.283H103.58V80.8971H105.716V82.1964H103.58V84.7415H102.139ZM97.0843 80.8971H102.139V73.1551H101.89L97.0843 80.6836V80.8971Z" fill="#868C98"/>
<g filter="url(#filter2_d_184_7814)">
<path d="M55.3933 17.6852C55.3933 15.8422 56.8874 14.3481 58.7304 14.3481H90.854C92.697 14.3481 94.1911 15.8422 94.1911 17.6852V24.3594C94.1911 26.2024 92.697 27.6965 90.854 27.6965H58.7304C56.8874 27.6965 55.3933 26.2024 55.3933 24.3594V17.6852Z" fill="#20231F" shape-rendering="crispEdges"/>
<path d="M55.5324 17.6852C55.5324 15.919 56.9642 14.4872 58.7304 14.4872H90.854C92.6202 14.4872 94.052 15.919 94.052 17.6852V24.3594C94.052 26.1256 92.6202 27.5574 90.854 27.5574H58.7304C56.9642 27.5574 55.5324 26.1256 55.5324 24.3594V17.6852Z" stroke="#354133" stroke-width="0.27809" shape-rendering="crispEdges"/>
<path d="M63.1797 24.3592C61.3367 24.3592 59.8427 22.8652 59.8427 21.0221C59.8427 19.1791 61.3367 17.6851 63.1797 17.6851C65.0228 17.6851 66.5168 19.1791 66.5168 21.0221C66.5168 22.8652 65.0228 24.3592 63.1797 24.3592ZM62.847 22.357L65.2063 19.9973L64.7345 19.5255L62.847 21.4132L61.903 20.4692L61.4311 20.941L62.847 22.357Z" fill="#38C793"/>
<path d="M70.3852 22.5222L71.72 17.8503H72.9881L74.3162 22.5222H73.5754L73.2684 21.421H71.4397L71.1327 22.5222H70.3852ZM71.6199 20.7536H73.0882L72.4074 18.2975H72.3006L71.6199 20.7536ZM76.4976 22.6157C76.1817 22.6157 75.8947 22.5489 75.6366 22.4154C75.383 22.2819 75.1806 22.0884 75.0293 21.8348C74.8824 21.5812 74.809 21.2764 74.809 20.9204V20.8337C74.809 20.4777 74.8824 20.1751 75.0293 19.926C75.1806 19.6724 75.383 19.4788 75.6366 19.3453C75.8947 19.2074 76.1817 19.1384 76.4976 19.1384C76.8135 19.1384 77.0827 19.1963 77.3052 19.3119C77.5276 19.4276 77.7056 19.5811 77.8391 19.7725C77.977 19.9638 78.066 20.1751 78.1061 20.4065L77.4386 20.5467C77.4164 20.3998 77.3697 20.2664 77.2985 20.1462C77.2273 20.0261 77.1272 19.9304 76.9982 19.8592C76.8691 19.788 76.7067 19.7524 76.5109 19.7524C76.3196 19.7524 76.1461 19.7969 75.9904 19.8859C75.8391 19.9705 75.7189 20.095 75.63 20.2597C75.541 20.4199 75.4965 20.6156 75.4965 20.847V20.9071C75.4965 21.1384 75.541 21.3364 75.63 21.5011C75.7189 21.6657 75.8391 21.7903 75.9904 21.8748C76.1461 21.9594 76.3196 22.0016 76.5109 22.0016C76.8002 22.0016 77.0204 21.9282 77.1717 21.7814C77.323 21.6301 77.4186 21.4388 77.4587 21.2074L78.1261 21.3609C78.0727 21.5878 77.977 21.797 77.8391 21.9883C77.7056 22.1796 77.5276 22.3331 77.3052 22.4488C77.0827 22.56 76.8135 22.6157 76.4976 22.6157ZM80.0298 22.5222C79.8296 22.5222 79.6694 22.4621 79.5493 22.342C79.4336 22.2219 79.3758 22.0617 79.3758 21.8615V19.8125H78.4681V19.2319H79.3758V18.144H80.0632V19.2319H81.0443V19.8125H80.0632V21.7413C80.0632 21.8748 80.1255 21.9416 80.2501 21.9416H80.9375V22.5222H80.0298ZM81.8519 22.5222V19.2319H82.5394V22.5222H81.8519ZM82.199 18.7847C82.0655 18.7847 81.952 18.7424 81.8586 18.6579C81.7696 18.5689 81.7251 18.4554 81.7251 18.3175C81.7251 18.1796 81.7696 18.0683 81.8586 17.9838C81.952 17.8948 82.0655 17.8503 82.199 17.8503C82.3369 17.8503 82.4504 17.8948 82.5394 17.9838C82.6284 18.0683 82.6729 18.1796 82.6729 18.3175C82.6729 18.4554 82.6284 18.5689 82.5394 18.6579C82.4504 18.7424 82.3369 18.7847 82.199 18.7847ZM84.3204 22.5222L83.2125 19.2319H83.94L84.8143 22.015H84.9211L85.7954 19.2319H86.5229L85.415 22.5222H84.3204ZM88.581 22.6157C88.2473 22.6157 87.9559 22.5467 87.7067 22.4088C87.4575 22.2664 87.2617 22.0684 87.1194 21.8148C86.9814 21.5567 86.9125 21.2586 86.9125 20.9204V20.8403C86.9125 20.4977 86.9814 20.1996 87.1194 19.946C87.2573 19.6879 87.4486 19.4899 87.6933 19.352C87.9425 19.2096 88.2295 19.1384 88.5543 19.1384C88.8702 19.1384 89.1461 19.2096 89.3819 19.352C89.6222 19.4899 89.809 19.6835 89.9425 19.9326C90.076 20.1818 90.1428 20.4733 90.1428 20.807V21.0673H87.6132C87.6221 21.3565 87.7178 21.5878 87.9002 21.7614C88.0871 21.9304 88.3185 22.015 88.5943 22.015C88.8524 22.015 89.046 21.9571 89.175 21.8415C89.3085 21.7258 89.4108 21.5923 89.482 21.441L90.0493 21.7347C89.987 21.8593 89.8958 21.9905 89.7757 22.1284C89.66 22.2664 89.5065 22.3821 89.3152 22.4755C89.1238 22.5689 88.8791 22.6157 88.581 22.6157ZM87.6199 20.54H89.442C89.4242 20.2908 89.3352 20.0973 89.175 19.9593C89.0148 19.817 88.8057 19.7458 88.5476 19.7458C88.2896 19.7458 88.0782 19.817 87.9136 19.9593C87.7534 20.0973 87.6555 20.2908 87.6199 20.54Z" fill="#CECFD2"/>
</g>
</g>
<rect x="2.13904" y="1.13904" width="194.941" height="98.7219" rx="8.75983" stroke="#1F221F" stroke-width="0.27809"/>
</g>
<defs>
<filter id="filter0_d_184_7814" x="0.88764" y="0.44382" width="197.444" height="101.225" filterUnits="userSpaceOnUse" color-interpolation-filters="sRGB">
<feFlood flood-opacity="0" result="BackgroundImageFix"/>
<feColorMatrix in="SourceAlpha" type="matrix" values="0 0 0 0 0 0 0 0 0 0 0 0 0 0 0 0 0 0 127 0" result="hardAlpha"/>
<feOffset dy="0.55618"/>
<feGaussianBlur stdDeviation="0.55618"/>
<feComposite in2="hardAlpha" operator="out"/>
<feColorMatrix type="matrix" values="0 0 0 0 0.227451 0 0 0 0 0.227451 0 0 0 0 0.227451 0 0 0 0.24 0"/>
<feBlend mode="normal" in2="BackgroundImageFix" result="effect1_dropShadow_184_7814"/>
<feBlend mode="normal" in="SourceGraphic" in2="effect1_dropShadow_184_7814" result="shape"/>
</filter>
<filter id="filter1_i_184_7814" x="13.1235" y="9.89906" width="17.7977" height="20.0226" filterUnits="userSpaceOnUse" color-interpolation-filters="sRGB">
<feFlood flood-opacity="0" result="BackgroundImageFix"/>
<feBlend mode="normal" in="SourceGraphic" in2="BackgroundImageFix" result="shape"/>
<feColorMatrix in="SourceAlpha" type="matrix" values="0 0 0 0 0 0 0 0 0 0 0 0 0 0 0 0 0 0 127 0" result="hardAlpha"/>
<feOffset dy="-2.22472"/>
<feGaussianBlur stdDeviation="2.22472"/>
<feComposite in2="hardAlpha" operator="arithmetic" k2="-1" k3="1"/>
<feColorMatrix type="matrix" values="0 0 0 0 1 0 0 0 0 1 0 0 0 0 1 0 0 0 0.64 0"/>
<feBlend mode="normal" in2="shape" result="effect1_innerShadow_184_7814"/>
</filter>
<filter id="filter2_d_184_7814" x="54.281" y="13.792" width="41.0224" height="15.5731" filterUnits="userSpaceOnUse" color-interpolation-filters="sRGB">
<feFlood flood-opacity="0" result="BackgroundImageFix"/>
<feColorMatrix in="SourceAlpha" type="matrix" values="0 0 0 0 0 0 0 0 0 0 0 0 0 0 0 0 0 0 127 0" result="hardAlpha"/>
<feOffset dy="0.55618"/>
<feGaussianBlur stdDeviation="0.55618"/>
<feComposite in2="hardAlpha" operator="out"/>
<feColorMatrix type="matrix" values="0 0 0 0 0.0627451 0 0 0 0 0.0941176 0 0 0 0 0.156863 0 0 0 0.05 0"/>
<feBlend mode="normal" in2="BackgroundImageFix" result="effect1_dropShadow_184_7814"/>
<feBlend mode="normal" in="SourceGraphic" in2="effect1_dropShadow_184_7814" result="shape"/>
</filter>
<linearGradient id="paint0_linear_184_7814" x1="21.9684" y1="22.9421" x2="21.9684" y2="30.5264" gradientUnits="userSpaceOnUse">
<stop offset="0.313079" stop-color="white"/>
<stop offset="1" stop-color="white" stop-opacity="0"/>
</linearGradient>
<linearGradient id="paint1_linear_184_7814" x1="24.7934" y1="10.8025" x2="17.4783" y2="12.7014" gradientUnits="userSpaceOnUse">
<stop stop-color="white"/>
<stop offset="1" stop-color="white" stop-opacity="0"/>
</linearGradient>
<linearGradient id="paint2_linear_184_7814" x1="19.5377" y1="22.5566" x2="19.5377" y2="29.0386" gradientUnits="userSpaceOnUse">
<stop offset="0.313079" stop-color="white"/>
<stop offset="1" stop-color="white" stop-opacity="0"/>
</linearGradient>
<linearGradient id="paint3_linear_184_7814" x1="24.8932" y1="12.1814" x2="13.7767" y2="18.5824" gradientUnits="userSpaceOnUse">
<stop stop-color="white"/>
<stop offset="1" stop-color="white" stop-opacity="0"/>
</linearGradient>
<linearGradient id="paint4_linear_184_7814" x1="17.8911" y1="21.4878" x2="17.8911" y2="25.2956" gradientUnits="userSpaceOnUse">
<stop offset="0.313079" stop-color="white"/>
<stop offset="1" stop-color="white" stop-opacity="0"/>
</linearGradient>
<linearGradient id="paint5_linear_184_7814" x1="25.9742" y1="15.393" x2="18.9679" y2="25.7583" gradientUnits="userSpaceOnUse">
<stop stop-color="white"/>
<stop offset="1" stop-color="white" stop-opacity="0"/>
</linearGradient>
<linearGradient id="paint6_linear_184_7814" x1="17.5556" y1="19.3215" x2="17.5556" y2="22.001" gradientUnits="userSpaceOnUse">
<stop offset="0.313079" stop-color="white"/>
<stop offset="1" stop-color="white" stop-opacity="0"/>
</linearGradient>
<linearGradient id="paint7_linear_184_7814" x1="26.2204" y1="15.0328" x2="22.281" y2="23.9112" gradientUnits="userSpaceOnUse">
<stop stop-color="white"/>
<stop offset="1" stop-color="white" stop-opacity="0"/>
</linearGradient>
<linearGradient id="paint8_linear_184_7814" x1="18.6348" y1="16.1177" x2="18.6348" y2="21.4658" gradientUnits="userSpaceOnUse">
<stop offset="0.313079" stop-color="white"/>
<stop offset="1" stop-color="white" stop-opacity="0"/>
</linearGradient>
<linearGradient id="paint9_linear_184_7814" x1="25.4586" y1="7.55729" x2="14.9262" y2="16.923" gradientUnits="userSpaceOnUse">
<stop stop-color="white"/>
<stop offset="1" stop-color="white" stop-opacity="0"/>
</linearGradient>
<linearGradient id="paint10_linear_184_7814" x1="20.7858" y1="14.1011" x2="20.7858" y2="21.4299" gradientUnits="userSpaceOnUse">
<stop offset="0.313079" stop-color="white"/>
<stop offset="1" stop-color="white" stop-opacity="0"/>
</linearGradient>
<linearGradient id="paint11_linear_184_7814" x1="24.4006" y1="2.37031" x2="15.4653" y2="5.44174" gradientUnits="userSpaceOnUse">
<stop stop-color="white"/>
<stop offset="1" stop-color="white" stop-opacity="0"/>
</linearGradient>
<linearGradient id="paint12_linear_184_7814" x1="23.3246" y1="14.1392" x2="23.3246" y2="21.4305" gradientUnits="userSpaceOnUse">
<stop offset="0.313079" stop-color="white"/>
<stop offset="1" stop-color="white" stop-opacity="0"/>
</linearGradient>
<linearGradient id="paint13_linear_184_7814" x1="27.0393" y1="2.46851" x2="17.9216" y2="5.70585" gradientUnits="userSpaceOnUse">
<stop stop-color="white"/>
<stop offset="1" stop-color="white" stop-opacity="0"/>
</linearGradient>
<linearGradient id="paint14_linear_184_7814" x1="25.4501" y1="16.2168" x2="25.4501" y2="21.4708" gradientUnits="userSpaceOnUse">
<stop offset="0.313079" stop-color="white"/>
<stop offset="1" stop-color="white" stop-opacity="0"/>
</linearGradient>
<linearGradient id="paint15_linear_184_7814" x1="32.3707" y1="7.80708" x2="21.9903" y2="17.3361" gradientUnits="userSpaceOnUse">
<stop stop-color="white"/>
<stop offset="1" stop-color="white" stop-opacity="0"/>
</linearGradient>
<linearGradient id="paint16_linear_184_7814" x1="26.4833" y1="19.4253" x2="26.4833" y2="22.0508" gradientUnits="userSpaceOnUse">
<stop offset="0.313079" stop-color="white"/>
<stop offset="1" stop-color="white" stop-opacity="0"/>
</linearGradient>
<linearGradient id="paint17_linear_184_7814" x1="35.1701" y1="15.2229" x2="31.3694" y2="23.987" gradientUnits="userSpaceOnUse">
<stop stop-color="white"/>
<stop offset="1" stop-color="white" stop-opacity="0"/>
</linearGradient>
<linearGradient id="paint18_linear_184_7814" x1="26.0948" y1="21.5364" x2="26.0948" y2="25.4438" gradientUnits="userSpaceOnUse">
<stop offset="0.313079" stop-color="white"/>
<stop offset="1" stop-color="white" stop-opacity="0"/>
</linearGradient>
<linearGradient id="paint19_linear_184_7814" x1="34.1144" y1="15.2821" x2="26.8373" y2="25.6909" gradientUnits="userSpaceOnUse">
<stop stop-color="white"/>
<stop offset="1" stop-color="white" stop-opacity="0"/>
</linearGradient>
<linearGradient id="paint20_linear_184_7814" x1="24.4113" y1="22.5842" x2="24.4113" y2="29.137" gradientUnits="userSpaceOnUse">
<stop offset="0.313079" stop-color="white"/>
<stop offset="1" stop-color="white" stop-opacity="0"/>
</linearGradient>
<linearGradient id="paint21_linear_184_7814" x1="29.6504" y1="12.0956" x2="18.6006" y2="18.2525" gradientUnits="userSpaceOnUse">
<stop stop-color="white"/>
<stop offset="1" stop-color="white" stop-opacity="0"/>
</linearGradient>
<clipPath id="clip0_184_7814">
<rect x="2" y="1" width="195.219" height="99" rx="8.89888" fill="white"/>
</clipPath>
</defs>
</svg>
