<?xml version="1.0" encoding="UTF-8"?>
<svg id="Layer_2" data-name="Layer 2" xmlns="http://www.w3.org/2000/svg" viewBox="0 0 172.66 57.85">
  <defs>
    <style>
      .cls-1 {
        fill: #7a877c;
      }
    </style>
  </defs>
  <g id="Layer_1-2" data-name="Layer 1">
    <g>
      <g>
        <path class="cls-1" d="M117.76,0v11.51c7.46-2.23,14.19.16,15.38,8.43s-3.15,15.27-12.09,15.83c-3.16.2-7-.22-9.92-1.42l-.04-29.61c.38-2.25,4.68-4.16,6.68-4.73ZM117.76,30.09c6.08,1.34,9.12-2.64,8.67-8.4-.41-5.25-4.07-6.32-8.67-4.87v13.28Z"/>
        <path class="cls-1" d="M47.45,10.67c7.31-.83,12.5,2.79,13.47,10.15,1.24,9.39-4.39,16.65-14.32,14.68-12.11-2.41-11.55-23.43.85-24.83ZM48.68,15.98c-4.43.63-4.46,7.79-3.52,11.04.88,3.04,3.77,4.31,6.63,2.86s2.8-8.2,1.9-10.86c-.78-2.32-2.56-3.39-5.01-3.04Z"/>
        <path class="cls-1" d="M11.73,12.21c4.79-1.23,10.38-2.35,15.26-1.01,10.3,2.83,6.46,16.04,7.23,23.91-.12.45-5.95.36-6.74.11v-14.43c0-.39-.62-2.1-.85-2.51-1.58-2.82-5.44-2.53-8.18-2v18.94c-2.15.29-4.57.29-6.73,0V12.21Z"/>
        <path class="cls-1" d="M165.82,20.18s.2.27.26.18c.15-6.08-7.3-4.38-11.15-3.72-.12-.9-.46-4.74.17-5.22.18-.14,1.39-.32,1.74-.38,7.01-1.26,14.98-.24,15.62,8.35v14.85c-4.71,1.74-14.18,2.83-17.98-1.12-2.41-2.5-2.58-7.69-.16-10.26,1.11-1.17,4.43-2.67,6.01-2.67s3.99-.21,5.49,0ZM166.08,24.78c-2.4-.2-7.56-.73-7.44,2.92.11,3.37,5.16,2.98,7.44,2.57v-5.49Z"/>
        <path class="cls-1" d="M100.06,20.18c-.01-5.93-7.35-4.17-11.15-3.54-.07-1.15-.27-2.3-.19-3.46.04-.6.03-1.64.63-1.85,1.05-.36,3.45-.65,4.6-.71,6.22-.34,11.97,1.54,12.49,8.59l-.03,15.12c-4.72,1.52-13.59,2.7-17.58-.86-2.8-2.49-3.04-8.07-.38-10.73,1.17-1.17,4.42-2.54,6.04-2.54h5.58ZM100.06,24.78c-2.6-.46-8.48-.49-7.27,3.64.81,2.75,5.06,2.13,7.27,2.03v-5.66Z"/>
        <path class="cls-1" d="M69.05,11.18l4.99,15.55,5.22-15.4c.55-.65,6.06-.34,7.17-.18l-9.51,24.07c-.97.19-5.26.46-5.79-.19l-9.22-23.35-.08-.54c.26-.26,6.76-.28,7.23.03Z"/>
        <path class="cls-1" d="M137.23,11.15c.16-.24,4.93-.3,5.37-.02s.56,2.85.91,2.84c.7-.66,1.3-1.41,2.12-1.95.45-.29,2.03-1.06,2.48-1.06h3.54c.67,0,.44,4.54.23,5.19-.04.13-.12.22-.23.3h-3.36c-.63,0-2.3,1.16-2.74,1.69-.49.58-1.6,2.86-1.6,3.54v13.54c-2.17.27-4.57.3-6.73,0V11.15Z"/>
        <g>
          <rect class="cls-1" x=".4" y="10.97" width="6.55" height="24.44"/>
          <path class="cls-1" d="M6.95,1.25c.28,2.04.27,4.14,0,6.19-2.18.15-4.36.32-6.52-.02-.37-.22-.19-5.22-.12-6.01.42-.58,5.68-.34,6.64-.16Z"/>
        </g>
      </g>
      <g>
        <path class="cls-1" d="M148.56,46.2v9.2c-1.87.52-4.73.89-5.76-1.23-1.36-2.78.71-5.74,3.82-5.14-.23-1.71.19-2.6,1.95-2.83ZM146.61,54.08c.14-.46,0-2.66,0-3.36,0-.18-.43-.27-.62-.28-1.77-.12-2.22,2.71-1.07,3.56.35.26,1.52.61,1.69.08Z"/>
        <path class="cls-1" d="M127.14,46.2v3.01c2.98-1.02,4.88,1.5,4.02,4.29s-3.52,2.44-5.79,2.09v-8.41c0-.23,1.37-1.13,1.77-.97ZM127.14,50.62c-.13.13.1,3.2,0,3.72,2.55.69,3.17-3.78.98-3.87-.09,0-.95.12-.98.15Z"/>
        <path class="cls-1" d="M52.8,55.76v-4.34c0-1.28-2.07-1.52-3.01-1.15l.18,5.49c-.51-.02-1.12.2-1.24-.44-.4-2.17,1.31-6.06-2.65-5.04v5.22c0,.37-1.42.37-1.42,0v-5.84c0-.3,2.24-.59,2.57-.58.63.01,1.38.47,1.77.48.46,0,1.45-.48,2.13-.48,1.49.02,2.66.91,2.87,2.4.08.56.16,4.02-.12,4.21-.25.17-.77.05-1.07.08Z"/>
        <path class="cls-1" d="M168.51,49.07c2.9-.59,4.37,1.16,4.13,3.95-.18,2.04-1.7,2.93-3.64,2.74-3.51-.34-3.33-6.12-.48-6.69ZM169.22,50.48c-1.42.29-1.46,4.05.47,3.86,1.61-.16,1.62-4.29-.47-3.86Z"/>
        <path class="cls-1" d="M155.28,52.92h-4.07c.4,1.91,2.32,1.32,3.72,1.06.6,2.1-1.8,1.97-3.23,1.73-3.17-.53-3.15-6.39.3-6.69,2.65-.23,3.54,1.49,3.28,3.9ZM153.51,51.69c.37-1.65-2.1-1.74-2.3-.27-.05.36.03.23.26.27.62.09,1.4-.06,2.04,0Z"/>
        <path class="cls-1" d="M141.65,55.31c-.17.53-3.3.52-3.9.36-2.24-.59-2.21-3.75.64-4.15.7-.1,1.6.31,1.29-.62-.29-.86-2.69-.17-2.81-.29.06-.34-.15-1.26.1-1.44.44-.31,2.61-.19,3.18.01.66.23,1.5,1.17,1.5,1.87,0,.83.17,3.73,0,4.25ZM139.88,54.34c.7-2.79-2.94-1.44-1.77-.26.37.38,1.27.24,1.77.26Z"/>
        <path class="cls-1" d="M68.73,46.38v9.03c-2.71.87-5.49.45-5.5-2.92,0-2.47,1.93-3.79,4.26-3.27.07-1.22-.48-2.8,1.24-2.83ZM67.49,54.69v-4.34c0-.55-2.51-.44-2.93,1.15-.57,2.2.64,3.82,2.93,3.19Z"/>
        <path class="cls-1" d="M160.42,50.62c-.11.11-3.9-.6-2.19.69.9.68,2.51.61,2.51,2.41,0,1.99-2.23,2.22-3.76,2.02-1.34-.17-1.25-.5-1.17-1.76.16-.16,2.75.78,3-.1.22-.79-2.12-.98-2.62-1.95-.91-1.76.67-3.07,2.35-3.05,1.26,0,2.19.31,1.88,1.75Z"/>
        <path class="cls-1" d="M166.25,49.21c-.06,1.92-.72,1.25-2.02,1.43-1.39.19-1.39,3.32,0,3.51,1.3.18,1.96-.49,2.02,1.42-3.27.8-5.33-.47-4.95-3.98.27-2.48,2.89-3.12,4.95-2.38Z"/>
        <path class="cls-1" d="M90.1,49.07c4.28-.26,4.18,7.51-.53,6.64-2.97-.55-2.91-6.43.53-6.64ZM89.92,50.13c-2.19.48-1.49,6.08,1.24,4.43,1.3-.79,1.16-4.96-1.24-4.43Z"/>
        <path class="cls-1" d="M86.43,55.76c-.38-.02-1.07.15-1.21-.29-.35-1.07.45-4.17-.42-4.97-.53-.49-2.61-.36-2.61-.22v5.49c-.25.03-1.24.05-1.24-.27v-5.84c0-.53,3.15-.57,3.76-.39.7.21,1.73,1.06,1.73,1.81v4.69Z"/>
        <path class="cls-1" d="M13.64,49.08c3.52-.11,3.76,5.32,1.44,6.4-4.76,2.2-5.92-6.25-1.44-6.4ZM13.28,50.13c-1.69.37-1.8,4.94.63,4.71,2.2-.21,2.02-5.29-.63-4.71Z"/>
        <path class="cls-1" d="M118.96,49.08c3.52-.11,3.76,5.32,1.44,6.4-4.76,2.2-5.92-6.25-1.44-6.4ZM118.6,50.13c-1.72.38-1.76,4.81.47,4.74,2.36-.07,2.21-5.32-.47-4.74Z"/>
        <path class="cls-1" d="M43.77,52.75h-4.25c.35,2.24,2.03,2.16,3.89,1.77.41,1.5-2.01,1.37-2.98,1.12-2.5-.65-2.67-4.97-.69-6.11,2.42-1.4,4.43.72,4.02,3.22ZM42.71,51.86c-.06-2.5-2.96-2.35-3.19,0h3.19Z"/>
        <path class="cls-1" d="M75.1,52.75h-4.25c.25,2.3,2.05,2.13,3.89,1.77.41,1.5-2.01,1.37-2.98,1.12-2.53-.66-2.71-5.05-.57-6.17,2.42-1.27,4.29.85,3.9,3.29ZM70.85,51.86h3.19c-.09-2.48-2.94-2.37-3.19,0Z"/>
        <path class="cls-1" d="M1.29,52.92c-.12,2.3,2.07,2.04,3.72,1.77.41,1.07-1.02,1.25-1.86,1.25-5.24,0-3.27-8.88,1.04-6.36,1.14.67,1.6,3.34.91,3.34H1.29ZM4.3,52.04c.11-1.61-1.49-2.66-2.66-1.33-.21.24-.81,1.33-.26,1.33h2.92Z"/>
        <path class="cls-1" d="M115.28,55.31c-.14.43-5,1.36-4.97-1.59.02-2,2.17-2.13,3.73-2.04.04-1.96-1.81-1.61-3.19-1.42-.44-1.56,2.19-1.26,3.08-.87.65.29,1.35,1.35,1.35,2.02,0,.77.16,3.41,0,3.89ZM114.04,52.57c-.84.02-2.4-.23-2.62.84-.34,1.63,2.31,1.72,2.6,1.26.17-.27-.07-1.65.03-2.1Z"/>
        <path class="cls-1" d="M59.88,55.31c-.16.49-5.07,1.33-4.97-1.6.06-2.01,2.17-2.13,3.73-2.03.03-2.01-1.8-1.54-3.19-1.42-.46-1.58,2.37-1.28,3.24-.85.53.26,1.19,1.27,1.19,1.82,0,.79.16,3.58,0,4.07ZM58.79,54.67c.11-.17.08-1.87-.14-2.02-.38-.26-2.14-.1-2.47.38-1.18,1.72,2.21,2.3,2.62,1.64Z"/>
        <path class="cls-1" d="M104.31,55.31c-.18.55-2.81.5-3.38.37-2.32-.53-2.02-3.63.47-3.98.91-.13,2.16.43,1.57-.9-.54-1.22-2.92-.36-3.09-.53-.42-1.08,1.05-1.25,1.84-1.22.99.03,2.58.93,2.58,2.02,0,.82.17,3.74,0,4.25ZM103.22,54.68c.08-.1.09-1.87-.15-2.03-.53-.37-2.23-.08-2.54.68-.64,1.56,2.26,1.85,2.69,1.34Z"/>
        <path class="cls-1" d="M134.04,55.76c-.46-.08-1.75.24-1.92-.29v-6.15c.17-.51,1.91-.53,1.83.42.52-.62,2.36-1.27,2.41-.09.05,1.42-.65.74-1.5,1.17-.29.15-.82.85-.82,1.13v3.81Z"/>
        <path class="cls-1" d="M109.77,49.41c.12.19-.03.77.02,1.04-1.04-.41-2.6-.54-3.1.71-.46,1.15-.28,3.36,1.23,3.55.69.08,2.42-.55,2.03.59-.15.43-1.14.38-1.22.46-.11.1.94,1.93-1.19,2.08-.87.06-1.31-.1-1.11-1.02.44-.05,1.57.24,1.59-.43.02-.82-.97-.68-1.58-1.08-2.18-1.42-1.42-6.32,1.83-6.26.19,0,1.46.29,1.5.36Z"/>
        <path class="cls-1" d="M96.17,53.81c.45.07.28-.04.37-.25.35-.78,1.16-3.79,1.48-4.18.27-.32.93-.14,1.33-.17-.84,1.82-1.39,4.17-2.32,5.91-.28.52-.5.96-1.14.48-.58-.43-2.14-5.37-2.55-6.38.4.04,1.06-.15,1.33.17.43.52,1.16,3.6,1.5,4.43Z"/>
        <path class="cls-1" d="M26.02,49.43c.23.21.32.7-.07.82-.43.13-2.46-.58-2.55.46-.11,1.18,3.03,1.11,3.02,3.18,0,2.26-3.87,2.26-4.34,1.33-.08-.16-.15-.65-.09-.71.12-.12,3.08.74,3.19-.45.14-1.54-3.05-1.11-3.02-3.19.01-1.08,1.11-1.75,2.09-1.81.31-.02,1.58.18,1.77.35Z"/>
        <path class="cls-1" d="M21.27,49.41c.11.18-.01.62.02.86-.23.24-2.68-.82-2.67.62,0,.97,2.09.98,2.65,1.97.75,1.31-.07,2.68-1.5,2.89-.93.13-2.98.1-2.55-1.22.49.08,2.88.43,3.02-.12.47-1.91-2.86-1.34-2.86-3.51s3.57-1.99,3.89-1.48Z"/>
        <path class="cls-1" d="M33.48,49.41c.11.18-.01.62.02.86-.23.24-2.68-.82-2.67.62,0,.81,1.09.85,1.67,1.18,2.02,1.14,1.64,3.45-.68,3.69-.94.09-2.8.05-2.39-1.24.14-.15,3.17.88,3.16-.62,0-1.25-2.86-.97-3-2.83-.17-2.31,3.56-2.18,3.88-1.65Z"/>
        <path class="cls-1" d="M35.98,53.9c.26,1.21,2,.67,2.12.8.28,1.27-.84,1.22-1.82,1.02-1.04-.21-1.46-1.21-1.55-2.16-.06-.63-.05-5.35.09-5.59.09-.15,1.07-.62,1.15-.53.05.3-.07,1.7,0,1.77.08.08,1.79-.06,2.13,0v1.06s-2.12,0-2.12,0c.15,1.05-.21,2.65,0,3.63Z"/>
        <path class="cls-1" d="M10.67,49.39c-.18,1.37-.89.67-1.66.71-2.23.13-2.26,4.29-.37,4.59.97.15,2.11-.5,2.03.89-6.29,1.85-6.09-8.19,0-6.19Z"/>
        <rect class="cls-1" x="27.31" y="49.21" width="1.24" height="6.55"/>
        <rect class="cls-1" x="78.64" y="49.21" width="1.06" height="6.55"/>
        <path class="cls-1" d="M114.75,47.08c.15,1.01-.8,1.37-1.64,1.2s-.68-.26-1.73-.22c-.86.04-.54-.81.12-.94,1.09-.22,1.41.32,2.09.32.48,0,.71-.36,1.15-.37Z"/>
        <path class="cls-1" d="M79.85,47.11c.13.21-.03.9.03,1.21h-1.42c.06-.31-.11-1,.03-1.21.14-.23,1.22-.23,1.37,0Z"/>
        <path class="cls-1" d="M28.55,48.32h-1.24c-.08-.99-.15-1.6,1.07-1.34l.17,1.34Z"/>
      </g>
    </g>
  </g>
</svg>