<svg width="20" height="21" viewBox="0 0 20 21" fill="none" xmlns="http://www.w3.org/2000/svg">
<path d="M14.8 14.8264H10.008C9.128 14.8264 8.448 15.5685 8.024 16.3264C7.68836 16.9479 7.15183 17.4408 6.4997 17.7268C5.84756 18.0129 5.11725 18.0756 4.42486 17.905C3.73246 17.7344 3.11772 17.3403 2.67836 16.7853C2.23899 16.2304 2.00022 15.5464 2 14.8422C2.008 14.2896 2.16 13.737 2.456 13.2633M5.2 14.8422L7.704 10.2792C8.128 9.51346 7.784 8.55823 7.304 7.83194C7.07745 7.4744 6.92576 7.0757 6.85789 6.65938C6.79001 6.24306 6.80732 5.81753 6.90879 5.40792C7.01027 4.9983 7.19385 4.61289 7.44871 4.27442C7.70357 3.93595 8.02454 3.65128 8.3927 3.4372C8.76085 3.22313 9.16872 3.08398 9.59225 3.02798C10.0158 2.97197 10.4464 3.00024 10.8587 3.11112C11.271 3.22199 11.6566 3.41323 11.9927 3.67355C12.3289 3.93386 12.6088 4.25798 12.816 4.62679M10 6.15831L12.504 10.6818C12.928 11.4476 13.92 11.6844 14.8 11.6844C15.6487 11.6844 16.4626 12.0171 17.0627 12.6093C17.6629 13.2015 18 14.0047 18 14.8422C18 15.6797 17.6629 16.4829 17.0627 17.0751C16.4626 17.6673 15.6487 18 14.8 18" stroke="url(#paint0_linear_206_1012)" stroke-width="2" stroke-linecap="round" stroke-linejoin="round"/>
<defs>
<linearGradient id="paint0_linear_206_1012" x1="10" y1="18.7163" x2="10" y2="-15.4551" gradientUnits="userSpaceOnUse">
<stop stop-color="white"/>
<stop offset="0.55" stop-color="#CFF3B9"/>
<stop offset="1" stop-color="#A7E97F"/>
</linearGradient>
</defs>
</svg>
