<svg width="20" height="21" viewBox="0 0 20 21" fill="none" xmlns="http://www.w3.org/2000/svg">
<path d="M9.22222 7.66667H12.3333C12.7459 7.66667 13.1416 7.50278 13.4333 7.21105C13.725 6.91933 13.8889 6.52367 13.8889 6.11111V3M9.22222 7.66667C9.22222 8.52578 8.52578 9.22222 7.66667 9.22222C6.80756 9.22222 6.11111 8.52578 6.11111 7.66667C6.11111 6.80756 6.80756 6.11111 7.66667 6.11111C8.52578 6.11111 9.22222 6.80756 9.22222 7.66667ZM6.11111 17V13.8889C6.11111 13.4763 6.275 13.0807 6.56672 12.7889C6.85845 12.4972 7.25411 12.3333 7.66667 12.3333H10.7778M10.7778 12.3333C10.7778 13.1924 11.4742 13.8889 12.3333 13.8889C13.1924 13.8889 13.8889 13.1924 13.8889 12.3333C13.8889 11.4742 13.1924 10.7778 12.3333 10.7778C11.4742 10.7778 10.7778 11.4742 10.7778 12.3333ZM4.55556 3H15.4444C16.3036 3 17 3.69645 17 4.55556V15.4444C17 16.3036 16.3036 17 15.4444 17H4.55556C3.69645 17 3 16.3036 3 15.4444V4.55556C3 3.69645 3.69645 3 4.55556 3Z" stroke="url(#paint0_linear_206_996)" stroke-width="2" stroke-linecap="round" stroke-linejoin="round"/>
<defs>
<linearGradient id="paint0_linear_206_996" x1="10" y1="17.6685" x2="10" y2="-14.2247" gradientUnits="userSpaceOnUse">
<stop stop-color="white"/>
<stop offset="0.55" stop-color="#CFF3B9"/>
<stop offset="1" stop-color="#A7E97F"/>
</linearGradient>
</defs>
</svg>
